# Blender v2.93.3 OBJ File: ''
# www.blender.org
mtllib bigStone.mtl
o Rock4_Cylinder.019
v 0.830855 0.034903 1.461626
v -0.673627 0.504406 1.789036
v -1.275022 0.029782 1.161071
v -2.013615 0.549714 -0.576960
v -0.907604 3.269544 1.121345
v -0.791770 3.901660 -0.114754
v -1.059686 0.305757 -1.518004
v 0.164700 0.034117 -1.588865
v 1.712523 0.281561 -0.559187
v 1.432279 0.828813 1.205273
v 1.542324 2.945990 -0.153044
v 0.783961 3.269170 1.093933
v -0.775627 2.255584 -1.562077
v 0.208814 4.012203 0.261403
v -0.016440 3.954105 -0.757011
v 0.689888 2.933192 -1.192611
vt 0.759810 0.992159
vt 0.680447 0.832184
vt 0.759810 0.756165
vt 0.493417 0.417996
vt 0.531395 0.785329
vt 0.396213 0.805085
vt 0.291593 0.153469
vt 0.574852 0.056592
vt 0.634720 0.179078
vt 0.353924 0.381024
vt 0.599491 0.381024
vt 0.833310 0.273513
vt 0.684018 0.037426
vt 0.833310 0.000000
vt 0.295542 0.583730
vt 0.357221 0.381024
vt 0.242755 0.764718
vt 0.057850 0.461431
vt 0.242755 0.449399
vt 0.504828 0.805086
vt 0.504828 0.924308
vt 0.407865 0.860831
vt 0.531395 0.771220
vt 0.680448 0.756165
vt 0.555896 0.881532
vt 0.918865 0.572330
vt 0.776518 0.527795
vt 0.809244 0.385554
vt 0.531395 0.581056
vt 0.776518 0.381024
vt 0.574686 0.681236
vt 0.109924 0.143745
vt 0.291593 0.135045
vt 0.113450 0.411357
vt 0.265713 0.000000
vt 0.000000 0.735241
vt 0.074178 0.821903
vt 0.680448 0.943852
vt 0.776518 0.756165
vt 0.438294 0.000000
vt 0.634720 0.332944
vt 0.000000 0.332062
vt 0.291593 0.449399
vt 0.817566 0.810100
vt 0.407865 0.805085
vt 0.407865 1.000000
vt 0.291593 0.923333
vt 0.291593 0.805086
vt 0.928953 0.000000
vt 0.928953 0.246123
vt 0.833310 0.062214
vt 0.918865 0.381024
vn -0.0916 -0.7502 0.6548
vn -0.9400 0.3314 0.0814
vn -0.2216 -0.9680 -0.1175
vn 0.1835 -0.9822 -0.0398
vn 0.8549 0.2479 0.4557
vn -0.6888 0.0841 -0.7200
vn 0.0158 0.2360 0.9716
vn -0.0966 0.9947 -0.0354
vn -0.2545 0.8705 0.4213
vn 0.5986 0.6269 -0.4986
vn -0.7534 0.0934 0.6509
vn -0.8323 0.3614 -0.4203
vn 0.2010 0.0968 -0.9748
vn 0.0378 0.4142 -0.9094
vn 0.2599 0.1128 0.9590
vn 0.0109 0.7498 0.6616
vn -0.9030 0.1075 0.4159
vn -0.3590 -0.9250 -0.1241
vn 0.0025 -1.0000 -0.0003
vn 0.9887 0.0412 0.1443
vn -0.0608 -0.0137 -0.9981
vn 0.5523 0.0139 -0.8335
vn 0.7643 0.1446 -0.6285
vn 0.2448 0.1130 0.9630
vn 0.6493 0.7324 0.2051
vn -0.5562 0.5457 -0.6268
vn 0.8058 -0.5173 0.2884
vn 0.5814 0.7948 -0.1739
g Rock4_Cylinder.019_Rock4_Cylinder.019_Rock1_1
usemtl Rock1_1
s 1
f 1/1/1 2/2/1 3/3/1
f 4/4/2 5/5/2 6/6/2
f 3/7/3 7/8/3 8/9/3
f 1/10/4 8/9/4 9/11/4
f 10/12/5 11/13/5 12/14/5
f 4/4/6 13/15/6 7/16/6
f 2/17/7 12/18/7 5/19/7
f 6/20/8 14/21/8 15/22/8
f 6/23/9 5/24/9 14/25/9
f 11/26/10 16/27/10 15/28/10
f 2/29/11 5/30/11 3/31/11
f 6/6/12 13/15/12 4/4/12
f 13/32/13 16/33/13 8/34/13
f 15/35/14 16/33/14 13/32/14
f 10/36/15 12/18/15 1/37/15
f 5/24/16 12/38/16 14/25/16
f 3/31/17 5/30/17 4/39/17
f 3/7/18 4/40/18 7/8/18
f 1/10/19 3/7/19 8/9/19
f 9/41/20 11/13/20 10/12/20
f 8/34/21 7/42/21 13/32/21
f 8/34/22 16/33/22 9/43/22
f 11/26/23 9/44/23 16/27/23
f 1/37/24 12/18/24 2/17/24
f 11/45/25 14/46/25 12/47/25
f 15/48/26 13/15/26 6/6/26
f 1/49/27 9/50/27 10/51/27
f 11/26/28 15/28/28 14/52/28
