# Blender v2.93.3 OBJ File: ''
# www.blender.org
mtllib brownMushroom.mtl
o Mushroom2_Cylinder.054
v -0.042968 0.142295 -0.010822
v -0.062958 0.013568 -0.104248
v -0.098665 0.016706 -0.010125
v -0.022981 0.166371 -0.071692
v 0.024288 0.013685 -0.138937
v 0.030370 0.196527 -0.096487
v 0.093542 0.015707 -0.086335
v 0.083164 0.205399 -0.067904
v 0.113078 0.019548 0.007093
v 0.085300 0.199599 0.053485
v 0.095211 0.022340 0.086737
v 0.037626 0.166959 0.075075
v 0.031625 0.028951 0.121778
v -0.032997 0.433161 0.054086
v -0.017184 0.142467 0.049666
v -0.052352 0.026085 0.083729
v 0.109144 0.439372 -0.004229
v 0.088073 0.436570 -0.072603
v -0.034111 0.433161 -0.075891
v 0.029927 0.433476 -0.102961
v 0.103071 0.207916 -0.004177
v 0.089187 0.436570 0.057373
v -0.060473 0.433161 -0.010673
v 0.031502 0.433476 0.080853
v -0.173340 0.475397 -0.055581
v -0.048729 0.677358 -0.137258
v -0.076528 0.469383 -0.188003
v 0.044405 0.678358 -0.153328
v 0.085500 0.475021 -0.213678
v 0.110605 0.682439 -0.092117
v 0.217786 0.489005 -0.117579
v 0.236702 0.502665 0.042636
v 0.115248 0.688339 0.010436
v 0.139910 0.508684 0.175057
v 0.053943 0.692147 0.094291
v -0.015939 0.503523 0.202116
v -0.037399 0.691633 0.110326
v 0.012977 0.826920 -0.032845
v -0.148225 0.489540 0.106016
v -0.103599 0.687552 0.049116
v 0.165011 0.366089 0.256867
v -0.035070 0.360085 0.300528
v -0.218272 0.340529 0.165076
v -0.110035 0.681166 -0.053402
v -0.253972 0.320427 -0.064620
v 0.302621 0.357541 0.068643
v 0.297149 0.339448 -0.153887
v 0.113946 0.319892 -0.289340
v -0.116362 0.311879 -0.252844
vt 0.077172 0.848221
vt 0.140880 0.946340
vt 0.069345 0.946340
vt 0.945548 0.530727
vt 0.895807 0.416170
vt 0.963235 0.418976
vt 0.912409 0.174776
vt 0.956598 0.307293
vt 0.893561 0.309537
vt 0.010641 0.833229
vt 0.069345 0.956944
vt 0.000000 0.956944
vt 0.760781 0.724063
vt 0.807273 0.595106
vt 0.820252 0.725940
vt 0.948681 0.695095
vt 0.911068 0.801831
vt 0.895807 0.698111
vt 0.832527 0.195999
vt 0.879747 0.000000
vt 0.877150 0.212500
vt 0.826246 0.295859
vt 0.893560 0.295859
vt 0.895807 0.424217
vt 0.836100 0.515156
vt 0.820252 0.416170
vt 0.777827 0.728688
vt 0.830804 0.725940
vt 0.873502 0.777979
vt 0.498922 0.859926
vt 0.504140 0.911904
vt 0.422902 0.948861
vt 0.904949 0.546569
vt 0.963235 0.695094
vt 0.913512 0.692603
vt 0.763715 0.586260
vt 0.820252 0.422802
vt 0.894527 0.702718
vt 0.843572 0.702718
vt 0.952910 0.711731
vt 1.000000 0.907780
vt 0.948681 0.906606
vt 0.956163 0.168171
vt 0.908797 0.002367
vt 0.956598 0.000000
vt 0.948681 0.826472
vt 0.900615 0.994807
vt 0.729562 0.416170
vt 0.773237 0.417789
vt 0.119334 0.833229
vt 0.058499 0.835730
vt 0.828799 0.001406
vt 0.883728 0.515304
vt 0.873502 0.854665
vt 0.740428 0.775080
vt 0.819750 0.904782
vt 0.723067 0.842574
vt 0.751438 0.899327
vt 0.473632 0.948861
vt 0.386649 0.912507
vt 0.386702 0.861165
vt 0.422437 0.824840
vt 0.467940 0.824208
vt 1.000000 0.695095
vt 0.945992 0.998008
vt 0.723067 0.584679
vt 0.411894 0.699828
vt 0.508231 0.550384
vt 0.531706 0.699828
vt 0.231710 0.697766
vt 0.320045 0.549354
vt 0.351521 0.697766
vt 0.577795 0.677703
vt 0.652663 0.528892
vt 0.697098 0.677807
vt 0.206490 0.700999
vt 0.083261 0.558966
vt 0.199531 0.538710
vt 0.132755 0.714887
vt 0.000000 0.613033
vt 0.722982 0.137515
vt 0.794067 0.284922
vt 0.678608 0.287689
vt 0.790608 0.134532
vt 0.729747 0.000000
vt 0.234362 0.824303
vt 0.323425 0.962998
vt 0.206490 0.962998
vt 0.619719 0.282919
vt 0.468136 0.193682
vt 0.572951 0.137992
vt 0.000000 0.111669
vt 0.099415 0.000000
vt 0.266267 0.001433
vt 0.184866 0.833229
vt 0.676721 0.270175
vt 0.655322 0.416170
vt 0.251083 0.547462
vt 0.287397 0.412574
vt 0.080031 0.749127
vt 0.557046 0.321259
vt 0.432361 0.550385
vt 0.469314 0.416170
vt 0.588264 0.526757
vt 0.623523 0.416170
vt 0.386649 0.095426
vt 0.535633 0.016266
vt 0.676721 0.000000
vt 0.676721 0.408043
vt 0.826246 0.408043
vt 0.664507 0.952749
vt 0.556951 0.839678
vt 0.664507 0.792706
vt 0.047378 0.447673
vt 0.206490 0.412574
vt 0.723067 0.792706
vt 0.556951 0.792706
vt 0.376791 0.822111
vt 0.206490 0.822111
vt 0.556951 0.824208
vt 0.386649 0.824208
vt 0.296471 0.822111
vt 0.386649 0.121867
vt 0.000000 0.281969
vt 0.386649 0.292167
vt 0.266267 0.412574
vt 0.099415 0.411141
vt 0.673807 0.126884
vt 0.556955 0.952268
vn -0.9161 0.3187 -0.2432
vn -0.8869 0.3536 -0.2974
vn -0.8606 0.3798 -0.3392
vn -0.4692 0.2302 -0.8526
vn -0.3919 0.2665 -0.8806
vn -0.3547 0.2827 -0.8912
vn 0.4936 0.1241 -0.8608
vn 0.5684 0.1532 -0.8084
vn 0.5937 0.1632 -0.7880
vn 0.9610 0.0446 -0.2729
vn 0.9717 0.0647 -0.2273
vn 0.9756 0.0735 -0.2070
vn 0.9684 0.0894 0.2330
vn 0.9565 0.0749 0.2821
vn 0.9721 0.0946 0.2148
vn 0.4457 0.2469 0.8605
vn 0.3351 0.2075 0.9190
vn 0.4866 0.2610 0.8337
vn -0.4039 -0.0351 0.9141
vn -0.3866 -0.0299 0.9218
vn -0.4070 -0.0360 0.9127
vn -0.4293 0.3455 0.8345
vn -0.4709 0.3198 0.8222
vn -0.3944 0.3659 0.8429
vn -0.8485 0.3735 0.3749
vn -0.8517 0.3704 0.3707
vn -0.8450 0.3769 0.3793
vn -0.0264 -0.9982 0.0538
vn -0.0279 -0.9903 0.1362
vn -0.0059 -0.9958 0.0909
vn -0.0321 0.9995 0.0034
vn -0.0269 0.9990 -0.0362
vn -0.0326 0.9992 -0.0245
vn -0.4042 -0.0306 -0.9142
vn -0.3919 -0.0268 -0.9196
vn -0.3891 -0.0259 -0.9208
vn 0.9555 -0.0212 0.2942
vn 0.9522 -0.0242 0.3046
vn 0.9563 -0.0205 0.2918
vn -0.9185 -0.0559 0.3914
vn -0.9190 -0.0556 0.3902
vn -0.9191 -0.0555 0.3900
vn -0.9398 -0.0549 -0.3373
vn -0.9287 -0.0464 -0.3679
vn -0.9262 -0.0445 -0.3744
vn 0.4765 -0.0239 -0.8788
vn 0.4662 -0.0271 -0.8842
vn 0.4638 -0.0278 -0.8855
vn 0.4134 -0.0115 0.9105
vn 0.3836 -0.0198 0.9233
vn 0.4182 -0.0101 0.9083
vn 0.9547 -0.0261 -0.2964
vn 0.9554 -0.0253 -0.2941
vn 0.9556 -0.0251 -0.2935
vn -0.9380 0.2869 -0.1945
vn -0.5075 0.2109 -0.8355
vn 0.4587 0.1108 -0.8817
vn 0.9536 0.0328 -0.2992
vn 0.9506 0.0686 0.3029
vn 0.2927 0.1921 0.9367
vn -0.3830 -0.0288 0.9233
vn -0.5074 0.2959 0.8093
vn -0.8567 0.3654 0.3641
vn 0.0078 -0.9979 0.0639
vn -0.0029 -0.9989 0.0467
vn 0.0097 -0.9994 0.0342
vn 0.0102 -0.9993 0.0352
vn 0.0109 -0.9997 0.0241
vn -0.0265 0.9983 -0.0510
vn -0.0366 0.9993 0.0000
vn -0.0329 0.9991 0.0261
vn -0.0274 0.9986 0.0442
vn -0.0404 0.9987 0.0323
vn -0.4066 -0.0313 -0.9131
vn 0.9514 -0.0249 0.3071
vn -0.9184 -0.0559 0.3916
vn -0.9417 -0.0565 -0.3316
vn 0.4790 -0.0231 -0.8775
vn 0.3779 -0.0214 0.9256
vn 0.9545 -0.0263 -0.2971
vn -0.7773 0.2453 -0.5794
vn -0.1620 0.2520 -0.9541
vn -0.1643 0.2532 -0.9534
vn -0.1600 0.2510 -0.9547
vn 0.5452 0.3738 -0.7504
vn 0.5849 0.3563 -0.7287
vn 0.5151 0.3861 -0.7652
vn 0.8478 0.5211 -0.0982
vn 0.8533 0.5068 -0.1224
vn 0.8575 0.4940 -0.1434
vn 0.6926 0.5367 0.4819
vn 0.6927 0.5367 0.4819
vn 0.1468 0.4494 0.8812
vn 0.1418 0.4512 0.8811
vn 0.1380 0.4525 0.8810
vn 0.1196 0.7003 0.7038
vn -0.6231 0.3266 0.7107
vn -0.6002 0.3135 0.7358
vn -0.5809 0.3025 0.7557
vn -0.9578 0.2772 0.0763
vn -0.9589 0.2651 0.1016
vn -0.9592 0.2527 0.1270
vn 0.0473 -0.9957 0.0798
vn 0.8130 0.5781 -0.0701
vn -0.5011 0.7101 0.4946
vn -0.1417 0.6053 -0.7833
vn 0.6481 0.6175 0.4458
vn -0.7647 0.6443 0.0079
vn -0.6314 0.6019 -0.4890
vn 0.5223 0.6011 -0.6049
vn -0.8852 0.4549 0.0978
vn -0.5399 0.5212 0.6610
vn -0.5405 0.5206 0.6609
vn -0.5437 0.5175 0.6607
vn 0.1478 0.5278 0.8364
vn 0.1491 0.5291 0.8354
vn 0.1634 0.5432 0.8235
vn 0.7385 0.4287 0.5204
vn 0.7385 0.4286 0.5204
vn 0.7385 0.4286 0.5205
vn 0.8912 0.4440 -0.0926
vn 0.8945 0.4358 -0.0998
vn 0.8756 0.4793 -0.0605
vn 0.4973 0.4489 -0.7424
vn 0.4970 0.4483 -0.7430
vn 0.4986 0.4521 -0.7396
vn -0.1567 0.4096 -0.8987
vn -0.7272 0.4104 -0.5503
vn -0.1671 0.2547 -0.9525
vn 0.6284 0.3353 -0.7019
vn 0.8403 0.5377 -0.0690
vn 0.6926 0.5367 0.4820
vn 0.1522 0.4474 0.8813
vn -0.6493 0.3416 0.6795
vn -0.9551 0.2934 0.0417
vn -0.5358 0.5251 0.6612
vn 0.1306 0.5106 0.8499
vn 0.7385 0.4287 0.5203
vn 0.9107 0.3884 -0.1406
vn 0.4954 0.4441 -0.7466
g Mushroom2_Cylinder.054_Mushroom2_Cylinder.054_Mushroom4_1
usemtl Mushroom4_1
s 1
f 1/1/1 2/2/2 3/3/3
f 4/4/4 5/5/5 2/6/6
f 6/7/7 7/8/8 5/9/9
f 8/10/10 9/11/11 7/12/12
f 9/13/13 10/14/14 11/15/15
f 11/16/16 12/17/17 13/18/18
f 12/19/19 14/20/20 15/21/21
f 13/22/22 15/21/23 16/23/24
f 16/24/25 1/25/26 3/26/27
f 11/27/28 13/28/29 16/29/30
f 17/30/31 18/31/32 19/32/33
f 6/33/34 19/34/35 20/35/36
f 21/36/37 22/37/38 10/14/39
f 1/25/40 14/38/41 23/39/42
f 4/40/43 23/41/44 19/42/45
f 8/43/46 20/44/47 18/45/48
f 10/46/49 24/47/50 12/17/51
f 21/36/52 18/48/53 17/49/54
f 1/1/1 4/50/55 2/2/2
f 4/4/4 6/33/56 5/5/5
f 6/7/7 8/43/57 7/8/8
f 8/10/10 21/51/58 9/11/11
f 9/13/13 21/36/59 10/14/14
f 11/16/16 10/46/60 12/17/17
f 12/19/19 24/52/61 14/20/20
f 13/22/22 12/19/62 15/21/23
f 16/24/25 15/53/63 1/25/26
f 16/29/30 3/54/64 9/55/65
f 3/54/64 2/56/66 7/57/67
f 2/56/66 5/58/68 7/57/67
f 7/57/67 9/55/65 3/54/64
f 9/55/65 11/27/28 16/29/30
f 20/59/69 19/32/33 18/31/32
f 19/32/33 23/60/70 17/30/31
f 23/60/70 14/61/71 17/30/31
f 14/61/71 24/62/72 17/30/31
f 24/62/72 22/63/73 17/30/31
f 6/33/34 4/4/74 19/34/35
f 21/36/37 17/49/75 22/37/38
f 1/25/40 15/53/76 14/38/41
f 4/40/43 1/64/77 23/41/44
f 8/43/46 6/7/78 20/44/47
f 10/46/49 22/65/79 24/47/50
f 21/36/52 8/66/80 18/48/53
g Mushroom2_Cylinder.054_Mushroom2_Cylinder.054_Mushroom4_2
usemtl Mushroom4_2
f 25/67/81 26/68/81 27/69/81
f 27/70/82 28/71/83 29/72/84
f 29/73/85 30/74/86 31/75/87
f 30/76/88 32/77/89 31/78/90
f 33/79/91 34/80/91 32/77/92
f 35/81/93 36/82/94 34/83/95
f 37/84/96 35/81/96 38/85/96
f 37/86/97 39/87/98 36/88/99
f 40/89/100 25/90/101 39/91/102
f 41/92/103 42/93/103 43/94/103
f 33/79/104 30/76/104 38/95/104
f 40/89/105 37/96/105 38/97/105
f 28/71/106 26/98/106 38/99/106
f 35/100/107 33/79/107 38/95/107
f 44/101/108 40/89/108 38/97/108
f 26/68/109 44/102/109 38/103/109
f 30/74/110 28/104/110 38/105/110
f 39/91/111 45/106/111 43/107/111
f 42/108/112 39/91/113 43/107/114
f 41/109/115 36/82/116 42/110/117
f 46/111/118 34/112/119 41/113/120
f 31/78/121 46/114/122 47/115/123
f 29/73/124 47/116/125 48/117/126
f 27/70/127 48/118/127 49/119/127
f 25/67/128 49/120/128 45/121/128
f 25/67/81 44/102/81 26/68/81
f 27/70/82 26/98/129 28/71/83
f 29/73/85 28/104/130 30/74/86
f 30/76/88 33/79/131 32/77/89
f 33/79/91 35/100/132 34/80/91
f 35/81/93 37/84/133 36/82/94
f 37/86/97 40/122/134 39/87/98
f 40/89/100 44/101/135 25/90/101
f 43/94/103 45/123/103 46/124/103
f 45/123/103 49/125/103 46/124/103
f 49/125/103 48/126/103 46/124/103
f 48/126/103 47/127/103 46/124/103
f 46/124/103 41/92/103 43/94/103
f 39/91/111 25/90/111 45/106/111
f 42/108/112 36/128/136 39/91/113
f 41/109/115 34/83/137 36/82/116
f 46/111/118 32/129/138 34/112/119
f 31/78/121 32/77/139 46/114/122
f 29/73/124 31/75/140 47/116/125
f 27/70/127 29/72/127 48/118/127
f 25/67/128 27/69/128 49/120/128
