# Blender v2.93.3 OBJ File: ''
# www.blender.org
mtllib etwasKleinererStein.mtl
o Rock1_Icosphere.000
v 0.319354 1.664572 -1.534238
v 1.129414 0.052544 -0.951913
v -0.682331 0.050053 -1.532657
v -0.381328 0.389264 0.891634
v -0.164609 0.851065 1.513290
v -1.059062 0.857656 1.215726
v 1.392166 1.633798 0.016076
v 1.132584 0.050058 0.939289
v 0.320491 1.689483 1.555786
v -1.395986 1.607580 0.912396
v -1.604974 0.890792 0.402522
v -0.183186 1.902362 -0.002044
v -1.483176 1.659248 -0.000249
v -1.485534 1.659296 -0.946094
v -1.634733 0.852095 -0.473384
v -0.181103 0.011099 -0.003065
vt 0.644070 0.703723
vt 0.404857 0.566516
vt 0.644070 0.427337
vt 0.190591 0.358585
vt 0.182929 0.460954
vt 0.070905 0.406111
vt 0.879711 0.708175
vt 0.879711 0.980565
vt 0.644070 0.850146
vt 1.000000 0.708175
vt 1.000000 0.975029
vt 0.885802 0.918695
vt 0.000552 0.282966
vt 0.827969 0.164848
vt 0.748512 0.427337
vt 0.607693 0.237055
vt 0.404857 0.839730
vt 0.640862 0.703723
vt 0.640862 0.979492
vt 0.990407 0.427337
vt 0.995462 0.560575
vt 0.882316 0.501931
vt 0.611337 0.000000
vt 0.238736 0.460954
vt 0.238736 0.737092
vt 0.000000 0.597827
vt 0.876027 0.427337
vt 0.876027 0.708175
vt 0.644070 0.571310
vt 0.474079 0.427337
vt 0.827969 0.069348
vt 0.947039 0.000000
vt 0.947039 0.275190
vt 0.244119 0.224852
vt 0.879711 0.781742
vt 0.404857 0.378771
vt 0.404857 0.166622
vt 0.995462 0.698044
vt 0.432488 0.296475
vt 0.357639 0.460954
vt 0.357639 0.741792
vt 0.238736 0.665935
vt 0.000000 0.156403
vt 0.179127 0.000000
vt 0.000000 0.812046
vt 0.108069 0.737092
vt 0.108069 0.879649
vt 0.876027 0.629365
vt 0.404857 0.108300
vn 0.3001 -0.1871 -0.9354
vn -0.2149 -0.7466 0.6296
vn 0.9867 -0.1628 -0.0019
vn -0.3519 0.2108 0.9120
vn -0.4532 -0.8528 0.2594
vn -0.4555 -0.8484 0.2697
vn -0.4559 -0.8476 0.2715
vn 0.1683 0.9809 -0.0970
vn 0.8067 0.2052 -0.5542
vn -0.9723 0.2090 0.1047
vn 0.1666 0.9827 0.0804
vn -0.3048 0.1882 -0.9336
vn 0.8088 0.1916 0.5560
vn -0.0589 0.9833 -0.1719
vn -0.7970 -0.1887 -0.5737
vn -0.4532 -0.8529 0.2591
vn -0.3120 0.1328 0.9408
vn -0.1890 -0.7556 0.6272
vn -0.1103 0.9793 0.1695
vn -0.9875 0.1578 0.0025
vn -0.1832 0.9804 0.0730
vn 0.2834 -0.2114 0.9354
vn -0.1838 0.9830 0.0005
vn -0.6062 -0.7934 0.0556
vn -0.8238 -0.1489 0.5470
vn -0.9804 0.1956 0.0247
vn 0.0107 -0.9995 -0.0289
vn -0.4915 -0.8597 0.1392
vn 0.0306 -0.9995 -0.0014
vn -0.2159 -0.9158 0.3388
g Rock1_Icosphere.000_Rock1_Icosphere.000_Rock1_1.001
usemtl Rock1_1.001
s 1
f 1/1/1 2/2/1 3/3/1
f 4/4/2 5/5/2 6/6/2
f 2/7/3 7/8/3 8/9/3
f 9/10/4 10/11/4 6/12/4
f 11/13/5 4/4/6 6/6/7
f 7/14/8 1/15/8 12/16/8
f 7/17/9 2/18/9 1/19/9
f 10/20/10 13/21/10 11/22/10
f 9/23/11 7/14/11 12/16/11
f 14/24/12 1/25/12 3/26/12
f 9/27/13 8/28/13 7/29/13
f 1/15/14 14/30/14 12/16/14
f 15/31/15 14/32/15 3/33/15
f 4/4/6 11/13/5 16/34/16
f 5/35/17 9/10/17 6/12/17
f 5/5/18 4/4/18 8/36/18
f 10/37/19 9/23/19 12/16/19
f 13/21/20 14/38/20 11/22/20
f 13/39/21 10/37/21 12/16/21
f 8/40/22 9/41/22 5/42/22
f 14/30/23 13/39/23 12/16/23
f 11/13/24 15/43/24 3/44/24
f 10/45/25 11/46/25 6/47/25
f 14/38/26 15/48/26 11/22/26
f 16/34/27 3/44/27 2/49/27
f 16/34/28 11/13/28 3/44/28
f 8/36/29 16/34/29 2/49/29
f 16/34/30 8/36/30 4/4/30
