# Blender v2.93.3 OBJ File: ''
# www.blender.org
mtllib grassBueschel.mtl
o Grass1_Cube.051
v -0.001824 0.534978 0.000876
v -0.056893 0.036129 0.020380
v 0.031366 0.036129 0.019624
v -0.063860 0.534978 -0.001616
v -0.057649 0.036129 -0.067878
v -0.024204 0.534978 -0.042923
v 0.030609 0.036129 -0.068635
v -0.067536 0.534978 -0.063719
v -0.055574 1.047896 -0.027731
v -0.053021 1.047896 -0.055154
v -0.025829 1.047896 -0.057990
v -0.032638 1.349939 -0.160002
v -0.029372 1.047896 -0.031476
v 0.115361 0.441271 0.169800
v 0.012374 0.026345 0.112332
v 0.075593 0.026345 0.074641
v 0.044557 0.457058 0.153659
v -0.025318 0.026345 0.049114
v 0.089693 0.457058 0.126748
v 0.037901 0.026345 0.011422
v 0.070224 0.441271 0.196710
v 0.155559 0.704931 0.315190
v 0.179010 0.704931 0.301208
v 0.274104 0.769267 0.487365
v 0.163981 0.683137 0.329316
v 0.187432 0.683138 0.315334
v -0.243231 0.402035 0.081249
v -0.119207 0.012604 -0.056712
v -0.090640 0.008864 0.011017
v -0.219939 0.428363 0.015772
v -0.052050 0.024497 -0.084382
v -0.199543 0.425694 0.064128
v -0.023482 0.020758 -0.016653
v -0.263627 0.404705 0.032893
v -0.425626 0.640407 0.127954
v -0.415029 0.639020 0.153078
v -0.618996 0.669414 0.225951
v -0.427211 0.614884 0.156883
v -0.437808 0.616272 0.131759
v -0.098245 0.305905 -0.109630
v -0.090257 0.036129 -0.079063
v -0.086623 0.036129 -0.126656
v -0.102428 0.305905 -0.076316
v -0.137850 0.036129 -0.082696
v -0.122871 0.305905 -0.099576
v -0.134217 0.036129 -0.130289
v -0.136061 0.305905 -0.077178
v -0.116121 0.583290 -0.081976
v -0.130781 0.583290 -0.084607
v -0.131065 0.583290 -0.099390
v -0.186346 0.746635 -0.100391
v -0.116940 0.583290 -0.096267
v 0.176108 0.422043 -0.004842
v 0.143133 0.031276 0.050967
v 0.143471 0.033343 -0.026315
v 0.175865 0.420560 0.050584
v 0.082479 0.038916 0.050905
v 0.132366 0.426039 0.050540
v 0.082818 0.040983 -0.026377
v 0.132608 0.427522 -0.004886
v 0.141082 0.765403 0.049600
v 0.141237 0.766348 0.014266
v 0.166886 0.778288 0.014697
v 0.140952 0.930943 0.024986
v 0.160833 0.955655 0.025734
v 0.166731 0.777343 0.050032
v 0.140853 0.930336 0.047691
v 0.183447 1.132026 0.041910
v 0.160734 0.955048 0.048438
v 0.148262 0.347143 -0.184684
v 0.086012 0.022970 -0.100282
v 0.050668 0.026129 -0.146332
v 0.143256 0.359761 -0.127576
v 0.040101 0.026562 -0.064800
v 0.118021 0.362016 -0.160454
v 0.004758 0.029721 -0.110850
v 0.173497 0.344888 -0.151806
v 0.275271 0.545879 -0.228718
v 0.262161 0.547051 -0.245800
v 0.403003 0.586930 -0.337548
v 0.271006 0.529093 -0.253821
v 0.284117 0.527921 -0.236738
v -0.059320 0.262521 -0.269803
v -0.012007 0.017007 -0.145339
v -0.056697 0.023524 -0.130130
v -0.015797 0.275932 -0.254272
v 0.004418 0.029166 -0.102288
v -0.047705 0.280585 -0.243413
v -0.040272 0.035683 -0.087078
v -0.027412 0.257868 -0.280662
v -0.060350 0.398361 -0.412032
v -0.076928 0.400778 -0.406389
v -0.113435 0.404985 -0.543153
v -0.064615 0.382137 -0.417610
v -0.081193 0.384555 -0.411968
v -0.061853 0.228175 0.172744
v -0.077679 0.031323 0.101003
v -0.038088 0.030230 0.116759
v -0.078477 0.233153 0.134471
v -0.061934 0.037371 0.061858
v -0.022343 0.036278 0.077614
v -0.050877 0.232391 0.145455
v -0.075113 0.401087 0.153687
v -0.068511 0.403623 0.137272
v -0.051909 0.403164 0.143878
v -0.093797 0.561123 0.174500
v -0.089453 0.228937 0.161761
v -0.058512 0.400628 0.160293
vt 0.613362 0.317559
vt 0.651700 0.625295
vt 0.597287 0.626101
vt 0.113593 0.509067
vt 0.175955 0.812578
vt 0.121580 0.816353
vt 0.542887 0.805465
vt 0.579416 0.498474
vt 0.597287 0.808304
vt 0.447790 0.003811
vt 0.383662 0.308396
vt 0.393414 0.000000
vt 0.651700 0.834681
vt 0.705895 0.780256
vt 0.705895 0.834760
vt 0.151855 0.506541
vt 0.107525 0.192319
vt 0.124418 0.191029
vt 0.594019 0.182983
vt 0.577307 0.182025
vt 0.597287 0.000000
vt 0.651700 0.316949
vt 0.626228 0.000189
vt 0.642276 0.000000
vt 0.410815 0.310476
vt 0.381640 0.625998
vt 0.651700 0.829415
vt 0.635571 0.827527
vt 0.651700 0.626101
vt 0.397947 0.627110
vt 0.447790 0.817632
vt 0.175955 0.000000
vt 0.484247 0.789227
vt 0.447790 0.541205
vt 0.493246 0.541205
vt 0.542887 0.018638
vt 0.447790 0.269152
vt 0.508641 0.000000
vt 0.963473 0.000000
vt 0.927017 0.256866
vt 0.918017 0.000000
vt 0.175955 0.276588
vt 0.277872 0.524267
vt 0.243409 0.543261
vt 0.152755 0.816353
vt 0.107525 0.861960
vt 0.107525 0.816545
vt 0.475412 0.273119
vt 0.467469 0.454309
vt 0.722510 0.906835
vt 0.705895 0.904920
vt 0.722510 0.780177
vt 0.951675 0.451868
vt 0.934813 0.451868
vt 0.459589 0.968982
vt 0.451793 0.789227
vt 0.204194 0.272156
vt 0.196005 0.090629
vt 0.210291 0.098122
vt 0.787574 0.929096
vt 0.770727 0.929096
vt 0.780897 0.805723
vt 0.277872 0.000000
vt 0.481058 0.446428
vt 0.542887 0.541205
vt 0.954473 0.699890
vt 0.918017 0.451868
vt 0.963473 0.451868
vt 0.381640 0.019087
vt 0.277872 0.263974
vt 0.344807 0.000000
vt 0.833758 0.677365
vt 0.804141 0.940598
vt 0.792276 0.684764
vt 0.000000 0.273420
vt 0.107525 0.515411
vt 0.070856 0.534462
vt 0.542887 0.853213
vt 0.587514 0.809641
vt 0.587514 0.854549
vt 0.307663 0.268454
vt 0.299240 0.446519
vt 0.763045 0.813867
vt 0.746183 0.813867
vt 0.754614 0.679053
vt 0.770727 0.974263
vt 0.922019 0.699890
vt 0.946676 0.879645
vt 0.929815 0.879645
vt 0.029959 0.268716
vt 0.021435 0.090424
vt 0.036514 0.097584
vt 0.770727 0.679545
vt 0.787378 0.679053
vt 0.787378 0.805723
vt 0.107525 0.000000
vt 0.313969 0.439026
vt 0.381640 0.533254
vt 0.372740 0.700209
vt 0.347975 0.534316
vt 0.377316 0.533254
vt 0.070768 0.809840
vt 0.104284 0.974421
vt 0.074888 0.976478
vt 0.211859 0.978187
vt 0.229419 0.811931
vt 0.241240 0.979297
vt 0.528812 0.543247
vt 0.494299 0.708214
vt 0.499439 0.541205
vt 0.542887 0.854549
vt 0.572200 0.884091
vt 0.542887 0.884020
vt 0.091492 0.808413
vt 0.067507 0.638318
vt 0.076606 0.637660
vt 0.236556 0.641501
vt 0.227436 0.641097
vt 0.241240 0.543261
vt 0.352216 0.700965
vt 0.370650 0.871835
vt 0.361823 0.872139
vt 0.509268 0.709648
vt 0.493246 0.880107
vt 0.377316 0.973093
vt 0.502003 0.880648
vt 0.528812 0.983596
vt 0.104284 0.534462
vt 0.745442 0.439001
vt 0.786011 0.679053
vt 0.738273 0.679053
vt 0.875888 0.438766
vt 0.918017 0.677724
vt 0.880376 0.679955
vt 0.792779 0.436843
vt 0.833758 0.677365
vt 0.786011 0.677365
vt 0.875888 0.002259
vt 0.833758 0.241226
vt 0.838207 0.000000
vt 0.419024 0.817632
vt 0.381640 0.865656
vt 0.381640 0.818338
vt 0.827022 0.436843
vt 0.798976 0.227460
vt 0.820806 0.227460
vt 0.853790 0.460732
vt 0.875888 0.553973
vt 0.864645 0.570005
vt 0.773422 0.218689
vt 0.779679 0.439001
vt 0.869107 0.452338
vt 0.911187 0.227707
vt 0.902883 0.437165
vt 0.816897 0.125908
vt 0.802870 0.125908
vt 0.809903 0.000000
vt 0.895867 0.219308
vt 0.918017 0.126074
vt 0.751595 0.218689
vt 0.769479 0.108967
vt 0.755454 0.108968
vt 0.762744 0.000000
vt 0.857723 0.679993
vt 0.906751 0.110045
vt 0.900087 0.000000
vt 0.270035 0.739164
vt 0.241240 0.543261
vt 0.277144 0.543261
vt 0.738273 0.020384
vt 0.651700 0.177237
vt 0.708809 0.000000
vt 0.211859 0.543261
vt 0.183063 0.746150
vt 0.175955 0.543261
vt 0.651700 0.605042
vt 0.735591 0.759824
vt 0.706081 0.780177
vt 0.687210 0.834800
vt 0.651700 0.870663
vt 0.651700 0.834760
vt 0.675729 0.185844
vt 0.669275 0.311407
vt 0.542104 0.641185
vt 0.528812 0.640436
vt 0.542104 0.541205
vt 0.202540 0.900174
vt 0.189221 0.900174
vt 0.244400 0.739164
vt 0.263876 0.881146
vt 0.250558 0.881146
vt 0.675558 0.596197
vt 0.669241 0.469109
vt 0.681029 0.471484
vt 0.541984 0.735229
vt 0.528812 0.735229
vt 0.541499 0.641185
vt 0.735591 0.387630
vt 0.681332 0.308681
vt 0.738273 0.387630
vt 0.839585 0.796381
vt 0.863189 0.956969
vt 0.833758 0.956969
vt 0.067507 0.548440
vt 0.000000 0.708268
vt 0.043567 0.534462
vt 0.875888 0.971631
vt 0.900963 0.792811
vt 0.905134 0.971631
vt 0.277872 0.719681
vt 0.347975 0.878382
vt 0.324035 0.892480
vt 0.136611 0.861960
vt 0.107525 0.891714
vt 0.107525 0.862479
vt 0.019366 0.712280
vt 0.013896 0.831302
vt 0.541984 0.822518
vt 0.531066 0.822518
vt 0.536525 0.735229
vt 0.880082 0.792811
vt 0.902294 0.679955
vt 0.855550 0.679993
vt 0.860598 0.796381
vt 0.297423 0.715492
vt 0.291877 0.596294
vt 0.301709 0.600615
vt 0.733355 0.861374
vt 0.722510 0.861374
vt 0.730503 0.780177
vt 0.347975 0.533254
vt 0.023475 0.826823
vt 0.067507 0.892730
vt 0.981352 0.451978
vt 0.963473 0.332149
vt 0.988299 0.330056
vt 0.609511 0.954349
vt 0.614434 0.828402
vt 0.634107 0.954964
vt 0.963720 0.861908
vt 0.988097 0.987422
vt 0.963473 0.985385
vt 0.980415 0.126792
vt 0.975697 0.000697
vt 1.000000 0.000000
vt 0.447790 0.844361
vt 0.422202 0.817632
vt 0.447790 0.818118
vt 0.623793 0.724524
vt 0.634107 0.724782
vt 0.988097 0.758307
vt 0.977771 0.757453
vt 0.970188 0.658226
vt 0.980886 0.863329
vt 0.977889 0.559296
vt 0.964045 0.453437
vt 0.989809 0.230723
vt 0.963473 0.127278
vt 0.988299 0.558418
vt 0.971874 0.658226
vt 1.000000 0.230430
vt 0.999005 0.330056
vt 0.630966 0.626101
vt 0.552316 0.497759
vt 0.651700 0.780177
vt 0.959471 0.256866
vt 0.152755 0.861768
vt 0.476451 0.968982
vt 0.833758 0.935315
vt 0.542887 0.808304
vt 0.738273 0.974263
vt 0.215546 0.811885
vt 0.572200 0.854620
vt 0.860781 0.242846
vt 0.419024 0.864950
vt 0.208698 0.746150
vt 0.687210 0.870703
vt 0.136611 0.891196
vt 0.891445 0.679955
vt 0.844633 0.679993
vt 0.597287 0.827973
vt 0.422202 0.843875
vn -0.0349 0.0429 0.9985
vn 0.0048 0.0385 0.9992
vn 0.0086 0.0381 0.9992
vn -0.9984 -0.0195 0.0536
vn -0.9998 -0.0141 0.0126
vn -0.9999 -0.0136 0.0086
vn 0.0180 0.0487 -0.9986
vn 0.3897 0.0199 -0.9207
vn -0.0086 0.0505 -0.9987
vn 0.9969 0.0700 -0.0370
vn 0.9053 0.1158 -0.4087
vn 0.9978 0.0661 -0.0086
vn 0.0000 -1.0000 -0.0000
vn -0.9984 0.0195 0.0539
vn -0.9963 0.0284 -0.0808
vn -0.9952 0.0300 -0.0932
vn -0.0983 -0.3204 -0.9422
vn 0.4164 0.0017 -0.9092
vn -0.0731 -0.0279 -0.9969
vn -0.1037 -0.0295 -0.9942
vn -0.0341 0.0604 0.9976
vn 0.1279 0.0491 0.9906
vn 0.1413 0.0481 0.9888
vn 0.8986 0.0188 -0.4383
vn 0.9950 0.0078 0.0992
vn 0.8903 0.0191 -0.4549
vn 0.1303 0.3894 0.9118
vn 0.9890 0.0669 0.1322
vn -0.9951 0.0350 -0.0926
vn 0.4973 -0.2389 0.8341
vn -0.8587 0.0150 0.5123
vn -0.8567 0.0145 0.5155
vn -0.8588 0.0150 0.5120
vn -0.4916 0.2799 -0.8246
vn 0.8630 0.0324 -0.5041
vn 0.8588 0.0337 -0.5112
vn 0.8584 0.0338 -0.5118
vn -0.8510 0.0401 0.5236
vn -0.8408 0.0293 0.5405
vn -0.8516 0.0408 0.5227
vn -0.1509 0.9556 -0.2531
vn -0.4020 0.6194 -0.6743
vn 0.4255 -0.5563 0.7138
vn 0.4256 -0.5563 0.7138
vn 0.8653 0.0403 -0.4996
vn 0.8753 0.0293 -0.4827
vn 0.8768 0.0276 -0.4801
vn 0.2095 -0.9125 0.3513
vn 0.8842 0.0400 -0.4655
vn -0.8299 0.0400 0.5565
vn -0.8551 -0.3924 0.3390
vn -0.3903 0.0655 -0.9183
vn -0.3937 0.0645 -0.9170
vn -0.3900 0.0656 -0.9185
vn 0.8397 0.4310 -0.3304
vn 0.3755 -0.0203 0.9266
vn 0.3829 -0.0176 0.9236
vn 0.3835 -0.0174 0.9234
vn 0.1296 -0.9855 -0.1091
vn -0.4057 0.0881 -0.9098
vn -0.4222 0.0742 -0.9034
vn -0.4048 0.0888 -0.9101
vn 0.1451 0.9894 -0.0066
vn 0.6360 0.7374 -0.2276
vn -0.6861 -0.6825 0.2517
vn -0.6862 -0.6825 0.2517
vn 0.3698 -0.0133 0.9290
vn 0.3532 -0.0274 0.9351
vn 0.3507 -0.0295 0.9360
vn -0.2550 -0.9654 0.0542
vn 0.3338 -0.0199 0.9425
vn -0.4408 0.0815 -0.8939
vn 0.9919 0.0429 0.1193
vn 0.9961 0.0385 0.0799
vn 0.9964 0.0381 0.0761
vn -0.0311 -0.0195 0.9993
vn -0.0721 -0.0141 0.9973
vn -0.0761 -0.0136 0.9970
vn -0.9935 0.0487 -0.1025
vn -0.8844 0.0199 -0.4663
vn -0.9958 0.0505 -0.0760
vn 0.0475 0.0700 -0.9964
vn -0.3306 0.1158 -0.9366
vn 0.0759 0.0661 -0.9949
vn -0.0308 0.0195 0.9993
vn -0.1649 0.0283 0.9859
vn -0.1770 0.0300 0.9837
vn -0.9471 -0.3204 0.0182
vn -0.8706 0.0017 -0.4919
vn -0.9995 -0.0279 -0.0115
vn -0.9994 -0.0295 0.0192
vn 0.9911 0.0604 0.1184
vn 0.9978 0.0491 -0.0437
vn 0.9972 0.0481 -0.0571
vn -0.3607 0.0188 -0.9325
vn 0.1831 0.0078 -0.9831
vn -0.3779 0.0191 -0.9256
vn 0.9196 0.3894 -0.0527
vn 0.2154 0.0669 -0.9742
vn -0.1765 0.0350 0.9837
vn 0.9965 -0.0838 0.0021
vn -0.0043 0.0024 1.0000
vn -0.0009 0.0011 1.0000
vn -0.9918 0.1278 -0.0009
vn 0.0079 0.0545 -0.9985
vn 0.0044 0.0558 -0.9984
vn -0.1249 -0.9918 -0.0271
vn -0.9997 0.0257 -0.0037
vn -0.0161 0.0656 -0.9977
vn -0.0363 0.0611 -0.9975
vn -0.0380 0.0608 -0.9974
vn 0.9997 0.0256 0.0051
vn 0.9995 0.0296 0.0052
vn -0.0064 0.0537 -0.9985
vn -0.0155 0.0002 0.9999
vn -0.0008 0.0019 1.0000
vn -0.9784 0.2067 0.0013
vn -0.0245 0.0123 0.9996
vn -0.0450 0.0077 0.9990
vn -1.0000 -0.0014 -0.0044
vn 0.9994 0.0338 0.0053
vn 0.9919 -0.1273 0.0009
vn -0.0900 0.1024 -0.9907
vn -0.0986 0.0493 0.9939
vn 0.7472 -0.2981 -0.5940
vn 0.6093 -0.0394 0.7919
vn 0.6123 -0.0401 0.7896
vn 0.6091 -0.0393 0.7921
vn -0.7352 0.3383 0.5874
vn -0.7352 0.3383 0.5875
vn -0.5978 0.0860 -0.7970
vn -0.6043 0.0879 -0.7919
vn -0.6048 0.0880 -0.7915
vn -0.0821 -0.9966 -0.0053
vn 0.6217 -0.0151 0.7831
vn 0.6363 -0.0272 0.7710
vn 0.6209 -0.0145 0.7838
vn -0.1543 0.9705 0.1850
vn -0.5691 0.6659 0.4825
vn 0.6106 -0.6057 -0.5102
vn -0.5930 0.0935 -0.7998
vn -0.5784 0.0814 -0.8117
vn -0.5762 0.0796 -0.8135
vn 0.2481 -0.9347 -0.2545
vn -0.5615 0.0908 -0.8225
vn 0.6517 -0.0176 0.7583
vn -0.3447 -0.4765 -0.8088
vn 0.9382 -0.1225 -0.3237
vn 0.9369 -0.1238 -0.3270
vn 0.9383 -0.1223 -0.3234
vn 0.3427 0.5129 0.7871
vn -0.9390 0.1653 0.3016
vn -0.9361 0.1688 0.3087
vn -0.9358 0.1690 0.3093
vn -0.0421 -0.9572 0.2864
vn 0.9338 -0.1017 -0.3430
vn 0.9265 -0.1172 -0.3576
vn 0.9342 -0.1009 -0.3421
vn 0.1418 0.9899 -0.0074
vn 0.2967 0.7932 0.5318
vn -0.3098 -0.7445 -0.5914
vn -0.3099 -0.7445 -0.5914
vn -0.9400 0.1717 0.2947
vn -0.9472 0.1561 0.2801
vn -0.9482 0.1537 0.2779
vn -0.1794 -0.9778 -0.1082
vn -0.9523 0.1612 0.2592
vn 0.9191 -0.1117 -0.3778
vn -0.3604 -0.2937 0.8854
vn -0.3604 -0.2937 0.8853
vn -0.9293 0.0568 -0.3650
vn -0.9293 0.0585 -0.3647
vn -0.9293 0.0569 -0.3650
vn 0.3545 0.3513 -0.8665
vn 0.3546 0.3513 -0.8665
vn 0.9274 0.0073 0.3741
vn 0.9275 0.0056 0.3739
vn 0.9274 0.0056 0.3739
vn 0.0289 -0.9896 -0.1413
vn 0.0289 -0.9895 -0.1413
vn -0.9293 0.0603 -0.3644
vn 0.3625 0.2691 -0.8923
vn 0.3696 -0.0063 -0.9292
vn -0.3670 0.0741 0.9273
vn 0.9272 0.0091 0.3744
vn -0.3687 -0.1621 0.9153
vn 0.9060 0.1647 0.3899
vn -0.9230 -0.0583 -0.3803
vn -0.0401 0.0435 0.9983
vn -0.9980 -0.0203 0.0591
vn 0.4326 0.0161 -0.9014
vn 0.8840 0.1204 -0.4517
vn -0.9981 0.0191 0.0591
vn 0.4327 0.0028 -0.9015
vn -0.0401 0.0608 0.9973
vn 0.9912 0.0070 0.1324
vn 0.4972 -0.2389 0.8341
vn -0.8565 0.0145 0.5160
vn -0.8393 0.0276 0.5430
vn 0.4256 -0.5563 0.7137
vn -0.3941 0.0643 -0.9168
vn -0.4247 0.0721 -0.9025
vn 0.9913 0.0435 0.1245
vn -0.0256 -0.0203 0.9995
vn -0.8616 0.0161 -0.5074
vn -0.3752 0.1204 -0.9191
vn -0.0256 0.0191 0.9995
vn -0.8617 0.0028 -0.5074
vn 0.9904 0.0608 0.1244
vn 0.2159 0.0070 -0.9764
vn 0.0080 0.0554 -0.9984
vn -0.0470 0.0074 0.9989
vn 0.6127 -0.0402 0.7893
vn -0.0821 -0.9966 -0.0054
vn 0.6385 -0.0290 0.7691
vn -0.5691 0.6658 0.4825
vn 0.9367 -0.1240 -0.3274
vn 0.9253 -0.1195 -0.3598
g Grass1_Cube.051_Grass1_Cube.051_Grass1_1.001
usemtl Grass1_1.001
s 1
f 1/1/1 2/2/2 3/3/3
f 4/4/4 5/5/5 2/6/6
f 5/7/7 6/8/8 7/9/9
f 7/10/10 1/11/11 3/12/12
f 5/13/13 3/14/13 2/15/13
f 8/16/14 9/17/15 10/18/16
f 11/19/17 10/20/17 12/21/17
f 6/8/18 10/20/19 11/19/20
f 4/22/21 13/23/22 9/24/23
f 6/25/24 13/26/25 1/11/26
f 9/27/27 13/28/27 12/29/27
f 13/26/28 11/30/28 12/31/28
f 10/18/16 9/17/15 12/32/29
f 14/33/30 15/34/30 16/35/30
f 15/36/31 17/37/32 18/38/33
f 18/39/34 19/40/34 20/41/34
f 19/42/35 16/43/36 20/44/37
f 18/45/13 16/46/13 15/47/13
f 21/48/38 22/49/39 17/37/40
f 23/50/41 22/51/41 24/52/41
f 19/40/42 22/53/42 23/54/42
f 14/33/43 25/55/44 21/56/43
f 14/57/45 23/58/46 26/59/47
f 25/60/48 26/61/48 24/62/48
f 26/59/49 23/58/49 24/63/49
f 22/49/50 25/64/50 24/65/50
f 27/66/51 28/67/51 29/68/51
f 28/69/52 30/70/53 31/71/54
f 31/72/55 32/73/55 33/74/55
f 32/75/56 29/76/57 33/77/58
f 31/78/59 29/79/59 28/80/59
f 34/81/60 35/82/61 30/70/62
f 36/83/63 35/84/63 37/85/63
f 32/86/64 35/84/64 36/83/64
f 34/87/65 38/88/65 39/89/66
f 27/90/67 36/91/68 38/92/69
f 39/93/70 38/94/70 37/95/70
f 38/92/71 36/91/71 37/96/71
f 35/82/72 39/97/72 37/98/72
f 40/99/73 41/100/74 42/101/75
f 43/102/76 44/103/77 41/104/78
f 44/105/79 45/106/80 46/107/81
f 46/108/82 40/109/83 42/110/84
f 44/111/13 42/112/13 41/113/13
f 47/114/85 48/115/86 49/116/87
f 50/117/88 49/118/88 51/119/88
f 45/106/89 49/118/90 50/117/91
f 43/120/92 52/121/93 48/122/94
f 45/123/95 52/124/96 40/109/97
f 48/122/98 52/121/98 51/125/98
f 52/124/99 50/126/99 51/127/99
f 49/116/87 48/115/86 51/128/100
f 53/129/101 54/130/101 55/131/101
f 56/132/102 57/133/103 54/134/103
f 58/135/104 59/136/104 57/137/104
f 59/138/105 53/139/106 55/140/105
f 57/141/107 55/142/107 54/143/107
f 60/144/108 61/145/108 62/146/108
f 63/147/109 64/148/110 65/149/111
f 53/129/112 66/150/113 56/151/112
f 53/139/106 62/152/114 63/147/109
f 56/132/102 61/153/115 58/154/116
f 64/155/117 67/156/117 68/157/117
f 66/158/118 67/159/119 61/153/115
f 61/145/120 64/155/120 62/146/120
f 63/160/113 69/161/121 66/150/113
f 69/161/122 65/162/122 68/163/122
f 65/149/123 64/148/123 68/164/123
f 67/159/124 69/165/124 68/166/124
f 70/167/125 71/168/125 72/169/125
f 71/170/126 73/171/127 74/172/128
f 74/173/129 75/174/130 76/175/129
f 75/176/131 72/177/132 76/178/133
f 71/179/134 76/180/134 72/181/134
f 77/182/135 78/183/136 73/171/137
f 79/184/138 78/185/138 80/186/138
f 75/174/139 78/187/139 79/188/139
f 77/189/140 81/190/140 82/191/140
f 70/192/141 79/193/142 81/194/143
f 82/195/144 81/196/144 80/197/144
f 81/194/145 79/193/145 80/198/145
f 78/183/146 82/199/146 80/200/146
f 83/201/147 84/202/147 85/203/147
f 84/204/148 86/205/149 87/206/150
f 87/207/151 88/208/151 89/209/151
f 88/210/152 85/211/153 89/212/154
f 87/213/155 85/214/155 84/215/155
f 90/216/156 91/217/157 86/205/158
f 92/218/159 91/219/159 93/220/159
f 86/221/160 92/222/160 88/208/160
f 83/201/161 94/223/162 90/224/161
f 83/225/163 92/226/164 95/227/165
f 94/228/166 95/229/166 93/230/166
f 95/227/167 92/226/167 93/231/167
f 91/217/168 94/232/168 93/233/168
f 96/234/169 97/235/170 98/236/170
f 97/237/171 99/238/172 100/239/173
f 99/240/174 101/241/174 100/242/175
f 102/243/176 98/244/177 101/245/178
f 97/246/179 101/247/179 98/248/180
f 99/238/172 103/249/181 104/250/181
f 105/251/182 104/252/182 106/253/182
f 99/240/183 105/251/183 102/254/183
f 96/234/184 103/255/184 107/256/184
f 102/243/176 108/257/185 96/258/176
f 103/255/186 108/259/186 106/260/186
f 108/257/187 105/261/187 106/262/187
f 104/250/188 103/249/188 106/263/188
f 1/1/1 4/22/189 2/2/2
f 4/4/4 8/16/190 5/5/5
f 5/7/7 8/264/191 6/8/8
f 7/10/10 6/25/192 1/11/11
f 5/13/13 7/265/13 3/14/13
f 8/16/14 4/4/193 9/17/15
f 6/8/18 8/264/194 10/20/19
f 4/22/21 1/1/195 13/23/22
f 6/25/24 11/30/196 13/26/25
f 14/33/30 21/56/197 15/34/30
f 15/36/31 21/48/198 17/37/32
f 18/39/34 17/266/34 19/40/34
f 19/42/35 14/57/45 16/43/36
f 18/45/13 20/267/13 16/46/13
f 21/48/38 25/64/199 22/49/39
f 19/40/42 17/266/42 22/53/42
f 14/33/43 26/268/200 25/55/44
f 14/57/45 19/42/35 23/58/46
f 27/66/51 34/87/51 28/67/51
f 28/69/52 34/81/201 30/70/53
f 31/72/55 30/269/55 32/73/55
f 32/75/56 27/90/67 29/76/57
f 31/78/59 33/270/59 29/79/59
f 34/81/60 39/97/202 35/82/61
f 32/86/64 30/271/64 35/84/64
f 34/87/65 27/66/65 38/88/65
f 27/90/67 32/75/56 36/91/68
f 40/99/73 43/120/203 41/100/74
f 43/102/76 47/114/204 44/103/77
f 44/105/79 47/272/205 45/106/80
f 46/108/82 45/123/206 40/109/83
f 44/111/13 46/273/13 42/112/13
f 47/114/85 43/102/207 48/115/86
f 45/106/89 47/272/208 49/118/90
f 43/120/92 40/99/209 52/121/93
f 45/123/95 50/126/210 52/124/96
f 53/129/101 56/151/101 54/130/101
f 56/132/102 58/154/116 57/133/103
f 58/135/104 60/144/104 59/136/104
f 59/138/105 60/274/211 53/139/106
f 57/141/107 59/275/107 55/142/107
f 60/144/108 58/135/108 61/145/108
f 63/147/109 62/152/114 64/148/110
f 53/129/112 63/160/113 66/150/113
f 53/139/106 60/274/211 62/152/114
f 56/132/102 66/158/118 61/153/115
f 66/158/118 69/165/212 67/159/119
f 61/145/120 67/156/120 64/155/120
f 63/160/113 65/162/121 69/161/121
f 70/167/125 77/189/125 71/168/125
f 71/170/126 77/182/213 73/171/127
f 74/173/129 73/276/130 75/174/130
f 75/176/131 70/192/141 72/177/132
f 71/179/134 74/277/214 76/180/134
f 77/182/135 82/199/215 78/183/136
f 75/174/139 73/276/216 78/187/139
f 77/189/140 70/167/140 81/190/140
f 70/192/141 75/176/131 79/193/142
f 83/201/147 90/224/147 84/202/147
f 84/204/148 90/216/217 86/205/149
f 87/207/151 86/221/151 88/208/151
f 88/210/152 83/225/163 85/211/153
f 87/213/155 89/278/155 85/214/155
f 90/216/156 94/232/218 91/217/157
f 86/221/160 91/279/160 92/222/160
f 83/201/161 95/280/162 94/223/162
f 83/225/163 88/210/152 92/226/164
f 96/234/169 107/256/169 97/235/170
f 97/237/171 107/281/172 99/238/172
f 99/240/174 102/254/174 101/241/174
f 102/243/176 96/258/176 98/244/177
f 97/246/179 100/282/180 101/247/179
f 99/238/172 107/281/172 103/249/181
f 99/240/183 104/252/183 105/251/183
f 96/234/184 108/259/184 103/255/184
f 102/243/176 105/261/185 108/257/185
