# Blender v2.93.3 OBJ File: ''
# www.blender.org
mtllib stock.mtl
o Branch_Cylinder.003
v -0.838820 0.219387 0.247319
v -0.837136 0.425851 0.129940
v -1.051119 0.425988 0.106251
v -0.830613 0.425851 -0.108121
v -0.889593 0.613692 0.063522
v 1.220895 0.418400 -0.088977
v 0.488734 0.273912 -0.269609
v 0.485471 0.480156 -0.150579
v 0.478947 0.480156 0.087482
v 0.475687 0.273912 0.206512
v 1.188633 0.430919 0.140986
v 0.478947 0.067668 0.087482
v 1.213250 0.218563 0.245416
v -0.838569 0.013366 0.126646
v -1.494664 0.006461 -0.158276
v 0.485471 0.067668 -0.150579
v -0.826988 0.220025 -0.230083
v 1.233926 0.033282 -0.077085
v 1.237637 0.215666 -0.189809
v -1.513921 0.219881 0.194864
v -1.510658 0.013637 0.075834
v -1.504134 0.426125 -0.162227
v -1.500873 0.219881 -0.281257
v -1.510658 0.426125 0.075834
v -1.044595 0.425988 -0.131809
v -0.991760 0.613759 -0.065381
v -0.886381 0.613692 -0.053715
v -0.994973 0.613759 0.051856
v -0.914701 0.751682 -0.100874
v -0.961343 0.749151 -0.104366
v 1.231411 0.041727 0.128948
v 1.258218 0.357433 0.106481
v -1.621627 0.159846 0.050039
v -1.614611 0.166082 -0.147454
v -1.619837 0.329690 -0.068721
vt 0.229250 0.248889
vt 0.142831 0.246203
vt 0.141676 0.167836
vt 0.886627 0.292990
vt 0.825552 0.363787
vt 0.799869 0.295395
vt 0.309080 0.005002
vt 0.382174 0.274553
vt 0.295504 0.274252
vt 0.781918 0.479268
vt 0.715965 0.749562
vt 0.695149 0.481163
vt 0.187718 0.725929
vt 0.116642 0.983279
vt 0.101078 0.723781
vt 0.689611 0.724782
vt 0.617952 0.994319
vt 0.602826 0.725182
vt 0.299534 0.751532
vt 0.713099 0.001895
vt 0.799869 0.000000
vt 0.603358 0.246969
vt 0.690358 0.245451
vt 0.516057 0.725052
vt 0.602826 0.005502
vt 0.602826 0.727090
vt 0.478179 0.274057
vt 0.417443 0.752035
vt 0.391673 0.273586
vt 0.577122 1.000000
vt 0.422258 0.000000
vt 0.608364 0.000399
vt 0.695149 0.000000
vt 0.305003 0.997717
vt 0.386555 0.751771
vt 0.391673 0.998019
vt 0.886594 0.003366
vt 0.799869 0.167832
vt 0.799869 0.000000
vt 0.229250 0.002148
vt 0.142610 0.000000
vt 0.499923 0.995217
vt 0.410450 0.998213
vt 0.799869 0.286469
vt 0.868156 0.220442
vt 0.886416 0.292990
vt 0.230626 0.810303
vt 0.229250 0.771711
vt 0.071546 0.225032
vt 0.070977 0.186438
vt 0.866306 0.740083
vt 0.892418 0.687817
vt 0.904907 0.740083
vt 0.000000 0.211758
vt 0.000855 0.194722
vt 0.868278 0.362603
vt 0.886627 0.412734
vt 0.391673 0.000000
vt 0.302328 0.829898
vt 0.799869 0.738216
vt 0.202505 0.995258
vt 0.695149 0.999380
vt 0.499923 0.245010
vt 0.502028 0.999368
vt 0.499923 0.000579
vt 0.517482 0.000000
vt 0.886594 0.171198
vt 0.825535 0.217230
vt 0.886416 0.171198
vt 0.875394 0.688920
vt 0.695149 0.817513
vt 0.717244 0.749562
vt 0.794053 0.758872
vt 0.917253 0.907994
vt 0.884433 0.842293
vt 0.917253 0.821285
vt 0.872222 0.532939
vt 0.804855 0.613508
vt 0.799869 0.541626
vt 0.799869 0.532939
vt 0.884506 0.473638
vt 0.885458 0.532939
vt 0.884433 0.908077
vt 0.830265 0.872857
vt 0.884433 0.821285
vt 0.866306 0.705253
vt 0.803018 0.631255
vt 0.866306 0.618497
vt 0.830265 0.824724
vt 0.789140 0.891126
vt 0.706444 0.891126
vt 0.872222 0.533522
vt 0.911185 0.532939
vt 0.911185 0.608787
vt 0.830265 0.821285
vt 0.884298 0.749562
vt 0.897202 0.821285
vt 0.872222 0.618497
vt 0.866306 0.674577
vt 0.932548 0.618497
vt 0.932548 0.687817
vt 0.810287 0.467081
vt 0.799869 0.697348
vt 0.845997 0.412734
vn -0.0954 0.4926 0.8650
vn 0.9604 0.2775 0.0263
vn 0.1138 0.4980 -0.8597
vn 0.0835 0.9965 0.0023
vn -0.0306 0.5000 0.8655
vn -0.0830 -0.4991 0.8626
vn -0.0472 0.5061 -0.8612
vn -0.0481 0.5013 -0.8640
vn -0.0485 0.4987 -0.8654
vn -0.0413 0.9991 -0.0011
vn 0.0067 0.4956 0.8685
vn 0.0071 0.4984 0.8669
vn 0.0065 0.4942 0.8693
vn 0.0467 -0.5033 0.8629
vn 0.0473 -0.5003 0.8646
vn 0.0464 -0.5048 0.8620
vn 0.0309 -0.9995 0.0008
vn -0.0056 -0.4998 -0.8661
vn -0.0458 -0.9990 -0.0013
vn 0.0532 -0.4998 -0.8645
vn -0.0659 -0.5006 0.8632
vn -0.0669 -0.5033 0.8615
vn -0.0655 -0.4996 0.8638
vn 0.0655 0.4996 -0.8638
vn 0.0003 1.0000 0.0000
vn -0.0571 0.4997 0.8643
vn 0.0658 -0.4968 -0.8654
vn -0.9598 0.2794 -0.0263
vn 0.1050 0.3053 -0.9465
vn -0.1046 0.3054 0.9464
vn 0.1047 -0.3023 -0.9474
vn -0.0894 0.7621 0.6413
vn 0.9774 0.2097 0.0268
vn 0.1292 0.4501 -0.8836
vn 0.0950 0.5087 -0.8557
vn 0.0725 0.9964 -0.0441
vn -0.0144 0.4399 0.8979
vn -0.0648 -0.5535 0.8303
vn -0.0467 0.5086 -0.8597
vn 0.0073 0.4998 0.8661
vn 0.0476 -0.4987 0.8655
vn 0.0391 -0.9971 -0.0660
vn 0.0147 -0.3598 -0.9329
vn -0.0367 -0.9985 0.0405
vn 0.0592 -0.5257 -0.8486
vn -0.0673 -0.5043 0.8609
vn 0.0581 0.4793 -0.8757
vn -0.0027 -0.9995 0.0305
vn -0.0660 0.5155 0.8543
vn -0.9770 0.2118 -0.0268
vn 0.0872 -0.2937 -0.9519
vn -0.0712 0.7586 0.6476
vn 0.9665 -0.0644 0.2485
vn 0.7002 0.3788 0.6052
vn -0.8001 -0.5980 -0.0473
vn -0.8212 0.2949 0.4885
vn -0.6486 0.7609 -0.0178
vn -0.7434 0.3254 -0.5843
vn 0.9964 -0.0835 0.0156
vn 0.9978 -0.0487 -0.0460
vn 0.9787 0.1504 -0.1400
vn 0.7401 0.6691 0.0674
vn -0.6070 -0.4100 -0.6808
vn -0.7930 -0.6082 -0.0355
vn -0.6573 -0.3845 0.6482
vn -0.8466 0.3110 0.4320
vn -0.7851 0.2481 -0.5676
vn -0.9992 -0.0146 -0.0360
g Branch_Cylinder.003_Branch_Cylinder.003_Branch1_1
usemtl Branch1_1
s 1
f 1/1/1 2/2/1 3/3/1
f 4/4/2 5/5/2 2/6/2
f 6/7/3 7/8/3 8/9/3
f 9/10/4 6/11/4 8/12/4
f 10/13/5 11/14/5 9/15/5
f 12/16/6 13/17/6 10/18/6
f 7/8/7 4/19/8 8/9/9
f 9/10/10 4/20/10 2/21/10
f 10/13/11 2/2/12 1/1/13
f 12/16/14 1/22/15 14/23/16
f 12/24/17 15/25/17 16/26/17
f 16/27/18 17/28/18 7/29/18
f 18/30/19 12/24/19 16/26/19
f 19/31/20 16/27/20 7/29/20
f 14/23/21 20/32/22 21/33/23
f 22/34/24 17/35/24 23/36/24
f 24/37/25 25/38/25 22/39/25
f 20/40/26 3/3/26 24/41/26
f 17/28/27 15/42/27 23/43/27
f 3/44/28 26/45/28 25/46/28
f 4/19/29 26/47/29 27/48/29
f 3/3/30 5/49/30 28/50/30
f 26/51/31 29/52/31 27/53/31
f 28/50/32 29/54/32 30/55/32
f 27/56/33 29/57/33 5/5/33
f 4/4/2 27/56/2 5/5/2
f 6/7/34 19/58/34 7/8/34
f 25/59/35 4/19/35 17/35/35
f 9/10/36 11/60/36 6/11/36
f 10/13/37 13/61/37 11/14/37
f 12/16/38 31/62/38 13/17/38
f 7/8/7 17/35/39 4/19/8
f 9/10/10 8/12/10 4/20/10
f 10/13/11 9/15/40 2/2/12
f 12/16/14 10/18/41 1/22/15
f 12/24/42 14/63/42 15/25/42
f 16/27/43 15/42/43 17/28/43
f 18/30/44 31/64/44 12/24/44
f 19/31/45 18/65/45 16/27/45
f 14/23/21 1/22/46 20/32/22
f 22/34/47 25/59/47 17/35/47
f 15/25/48 14/63/48 21/66/48
f 24/37/25 3/67/25 25/38/25
f 20/40/49 1/1/49 3/3/49
f 26/45/50 28/68/50 30/69/50
f 3/44/28 28/68/28 26/45/28
f 4/19/29 25/59/29 26/47/29
f 3/3/30 2/2/30 5/49/30
f 26/51/51 30/70/51 29/52/51
f 28/50/52 5/49/52 29/54/52
g Branch_Cylinder.003_Branch_Cylinder.003_Branch1_2
usemtl Branch1_2
f 32/71/53 13/72/53 31/73/53
f 13/74/54 32/75/54 11/76/54
f 15/77/55 33/78/55 34/79/55
f 24/80/56 33/81/56 20/82/56
f 22/83/57 35/84/57 24/85/57
f 23/86/58 35/87/58 22/88/58
f 31/73/59 18/89/59 32/71/59
f 18/89/60 19/90/60 32/71/60
f 19/90/61 6/91/61 32/71/61
f 11/92/62 32/93/62 6/94/62
f 23/95/63 15/96/63 34/97/63
f 15/77/64 21/98/64 33/78/64
f 21/99/65 20/100/65 33/101/65
f 24/80/66 35/102/66 33/81/66
f 23/86/67 34/103/67 35/87/67
f 35/102/68 34/104/68 33/81/68
