# Blender v2.93.3 OBJ File: ''
# www.blender.org
mtllib bigstone.mtl
o BigRock5_Cube.023
v -13.326909 -2.947909 3.937196
v -13.189537 2.840031 2.948843
v -14.037608 -0.457267 -6.763330
v -13.122822 6.859259 -4.935546
v -3.656203 -2.947600 6.167973
v -3.250288 6.962504 4.646316
v -1.071072 -1.203917 -7.179251
v -2.872099 8.964411 -6.484982
v -5.774496 -1.250204 -7.550943
v -11.296468 -0.547185 -7.128081
v -10.111052 7.658082 -5.090202
v -5.953918 9.013364 -5.371804
v -10.042788 -2.983479 5.761546
v -6.034763 -2.985404 6.297924
v -5.598252 6.346830 4.334762
v -9.845614 3.694539 4.122276
v -13.485241 -0.913195 4.489424
v -13.930750 0.862606 2.864048
v -13.441998 5.605969 -5.844784
v -13.823902 3.148023 -6.531666
v -1.267532 6.517392 -8.077400
v 0.232884 3.405697 -8.166018
v -1.964168 3.375956 5.872346
v -2.288998 -0.301237 6.392776
v -4.392867 2.495562 7.242620
v -4.570299 -0.495183 7.816689
v -9.700107 1.400160 5.716196
v -9.606158 -0.786618 6.987845
v -10.005157 6.266691 -6.027921
v -10.674852 3.329884 -6.896673
v -4.924645 7.823153 -6.708443
v -4.566017 4.237730 -8.481245
v -14.624876 -1.195384 -4.634403
v -14.713751 -2.443844 -0.964842
v -14.448414 3.752545 -1.913259
v -13.984869 5.341915 -3.831089
v -1.834560 -2.739121 0.873649
v -0.614857 -1.888912 -4.343253
v -2.739323 10.097198 -4.034525
v -2.848490 9.881448 -0.910057
v -7.547216 8.052691 -3.627451
v -7.552669 7.458253 -1.411274
v -11.567036 6.014892 -4.364441
v -12.195262 4.804238 -2.877618
v -11.822005 -1.267579 -4.703602
v -11.575779 -2.430235 0.425208
v -5.621511 -1.887532 -4.008484
v -5.434666 -2.875819 1.756058
v 0.824868 3.085797 -5.542582
v -0.680433 1.669210 0.106522
v -1.197492 7.360493 -5.460093
v -1.285738 6.665056 -0.826096
v -15.143217 -0.174682 -0.789559
v -14.838417 1.524975 -4.971659
v -14.914595 1.658572 -1.188909
v -14.505480 3.753217 -4.757346
vn -0.8999 0.3919 -0.1912
vn -0.9022 0.3860 -0.1926
vn -0.8954 0.4033 -0.1885
vn -0.2256 0.5615 -0.7961
vn -0.1920 0.5095 -0.8388
vn -0.1617 0.4616 -0.8722
vn 0.8610 0.4204 0.2862
vn 0.8640 0.4132 0.2877
vn 0.8657 0.4091 0.2885
vn -0.4589 0.4064 0.7901
vn -0.5244 0.2767 0.8052
vn -0.5655 0.1774 0.8054
vn 0.0266 -0.9993 -0.0270
vn 0.0206 -0.9995 -0.0246
vn 0.0147 -0.9996 -0.0222
vn -0.3192 0.9132 0.2534
vn -0.3210 0.9127 0.2529
vn -0.3218 0.9125 0.2527
vn -0.4161 0.8401 0.3480
vn -0.3592 0.8503 0.3847
vn -0.2820 0.8576 0.4301
vn -0.5317 0.7864 0.3145
vn -0.5259 0.7887 0.3185
vn -0.5122 0.7939 0.3278
vn 0.0561 -0.9914 -0.1182
vn 0.0556 -0.9914 -0.1184
vn 0.0565 -0.9914 -0.1179
vn -0.0288 -0.9978 -0.0599
vn -0.0293 -0.9977 -0.0605
vn -0.0531 -0.9947 -0.0879
vn 0.0880 0.5406 0.8366
vn -0.0424 0.4178 0.9075
vn 0.1962 0.6292 0.7520
vn -0.3430 0.5035 0.7929
vn -0.3400 0.5100 0.7901
vn -0.3335 0.5235 0.7840
vn -0.1654 0.5886 -0.7913
vn -0.1777 0.5586 -0.8102
vn -0.1580 0.6059 -0.7797
vn -0.2438 0.5503 -0.7986
vn -0.2739 0.5862 -0.7625
vn -0.2835 0.5973 -0.7502
vn -0.1482 -0.0173 -0.9888
vn -0.1736 -0.0452 -0.9838
vn -0.0673 0.0702 -0.9953
vn -0.2697 0.3580 -0.8939
vn -0.2567 0.3842 -0.8868
vn -0.2827 0.3308 -0.9004
vn -0.1232 0.0755 -0.9895
vn -0.1248 0.0744 -0.9894
vn -0.1293 0.0712 -0.9890
vn -0.1183 0.2945 -0.9483
vn -0.1163 0.2967 -0.9479
vn -0.1266 0.2852 -0.9501
vn -0.1174 -0.4659 0.8770
vn -0.1175 -0.4660 0.8769
vn -0.1176 -0.4661 0.8769
vn -0.2743 0.2779 0.9206
vn -0.2187 0.3963 0.8917
vn -0.1691 0.4900 0.8552
vn 0.2593 -0.4704 0.8435
vn 0.3368 -0.4356 0.8347
vn 0.0544 -0.5430 0.8379
vn 0.4942 0.1097 0.8624
vn 0.4873 0.1031 0.8671
vn 0.5168 0.1317 0.8459
vn -0.4929 -0.3231 0.8079
vn -0.4813 -0.2926 0.8262
vn -0.4704 -0.2650 0.8417
vn -0.5091 0.4412 0.7390
vn -0.5211 0.4773 0.7076
vn -0.5013 0.4188 0.7572
vn 0.9354 -0.2885 0.2044
vn 0.8975 -0.3714 0.2380
vn 0.8451 -0.4598 0.2727
vn 0.9774 0.0926 0.1902
vn 0.9770 0.0161 0.2127
vn 0.9713 -0.0530 0.2319
vn 0.0520 -0.2007 -0.9783
vn 0.0555 -0.1985 -0.9785
vn 0.0792 -0.1835 -0.9798
vn -0.0757 0.2791 -0.9573
vn -0.0333 0.2209 -0.9747
vn 0.0767 0.0653 -0.9949
vn -0.9079 0.0120 -0.4191
vn -0.9259 -0.0341 -0.3762
vn -0.9474 -0.1116 -0.3000
vn -0.8854 0.2134 -0.4129
vn -0.8853 0.2138 -0.4130
vn -0.8982 0.1731 -0.4041
vn -0.9525 0.0648 0.2977
vn -0.9505 0.1474 0.2736
vn -0.9517 0.0399 0.3045
vn -0.9917 0.1263 -0.0244
vn -0.9894 0.1430 -0.0250
vn -0.9927 0.1185 -0.0242
vn -0.9492 -0.1611 0.2702
vn -0.9488 -0.1860 0.2554
vn -0.9482 -0.1986 0.2478
vn -0.9845 -0.1487 -0.0932
vn -0.9879 -0.1172 -0.1021
vn -0.9802 -0.1790 -0.0846
vn 0.8904 0.4273 -0.1566
vn 0.8900 0.4294 -0.1533
vn 0.8892 0.4330 -0.1479
vn 0.9348 0.2994 0.1911
vn 0.9369 0.2843 0.2035
vn 0.9411 0.1687 0.2931
vn 0.9194 -0.3182 -0.2311
vn 0.9186 -0.3148 -0.2390
vn 0.9200 -0.3206 -0.2254
vn 0.9552 -0.2240 0.1932
vn 0.9557 -0.2228 0.1923
vn 0.9576 -0.2179 0.1884
vn -0.0861 -0.9626 -0.2570
vn -0.1161 -0.9716 -0.2063
vn -0.0620 -0.9530 -0.2966
vn -0.0520 -0.9804 -0.1898
vn -0.0552 -0.9794 -0.1941
vn -0.0730 -0.9734 -0.2172
vn -0.0503 -0.9467 -0.3183
vn -0.0538 -0.9476 -0.3149
vn -0.0325 -0.9415 -0.3354
vn 0.0259 -0.9591 -0.2817
vn 0.0611 -0.9647 -0.2562
vn -0.0323 -0.9460 -0.3226
vn -0.4179 0.7348 0.5342
vn -0.3230 0.8883 0.3265
vn -0.2848 0.9255 0.2496
vn -0.5317 0.7736 0.3447
vn -0.4939 0.8276 0.2669
vn -0.4731 0.8512 0.2271
vn -0.3187 0.9478 -0.0020
vn -0.2162 0.9448 -0.2461
vn -0.1337 0.9023 -0.4099
vn -0.4417 0.8807 0.1711
vn -0.4096 0.9070 0.0979
vn -0.3872 0.9206 0.0500
vn -0.0171 0.5383 0.8426
vn -0.0432 0.5039 0.8627
vn -0.0762 0.4585 0.8854
vn -0.0925 0.7829 0.6152
vn -0.0910 0.7846 0.6133
vn -0.0860 0.7901 0.6070
vn -0.0006 -0.9774 -0.2115
vn 0.0096 -0.9802 -0.1976
vn 0.0237 -0.9837 -0.1780
vn -0.0084 -0.9862 -0.1655
vn -0.0071 -0.9860 -0.1665
vn -0.0040 -0.9856 -0.1689
vn 0.7476 0.6039 -0.2765
vn 0.7460 0.6139 -0.2582
vn 0.7421 0.6320 -0.2234
vn 0.8910 0.4478 0.0754
vn 0.8917 0.4466 0.0737
vn 0.8864 0.4550 0.0852
vn -0.9036 0.3194 0.2855
vn -0.9061 0.3083 0.2897
vn -0.9020 0.3260 0.2830
vn -0.9693 0.2452 0.0195
vn -0.9612 0.2752 0.0194
vn -0.9745 0.2237 0.0196
vn -0.9070 0.3729 -0.1956
vn -0.2597 0.6132 -0.7460
vn 0.8591 0.4249 0.2853
vn -0.3979 0.5063 0.7651
vn 0.0309 -0.9991 -0.0287
vn -0.3178 0.9136 0.2537
vn -0.4608 0.8289 0.3171
vn -0.5435 0.7815 0.3063
vn 0.0552 -0.9914 -0.1186
vn 0.0027 -0.9997 -0.0238
vn -0.1926 0.2549 0.9476
vn -0.3479 0.4932 0.7974
vn -0.1853 0.5395 -0.8214
vn -0.2287 0.5320 -0.8153
vn -0.2338 -0.1122 -0.9658
vn -0.2434 0.4102 -0.8789
vn -0.1192 0.0782 -0.9898
vn -0.1090 0.3047 -0.9462
vn -0.3083 0.1969 0.9307
vn 0.5192 -0.3350 0.7862
vn 0.4666 0.0834 0.8805
vn -0.5005 -0.3440 0.7945
vn -0.5274 0.4978 0.6885
vn 0.9593 -0.2205 0.1764
vn 0.9735 0.1501 0.1723
vn 0.0266 -0.2164 -0.9759
vn -0.1822 0.4211 -0.8885
vn -0.8726 0.0827 -0.4815
vn -0.8711 0.2530 -0.4209
vn -0.9481 0.1759 0.2647
vn -0.9883 0.1501 -0.0252
vn -0.9492 -0.1491 0.2772
vn -0.9898 -0.0912 -0.1092
vn 0.8910 0.4246 -0.1606
vn 0.9016 0.4250 0.0809
vn 0.9179 -0.3121 -0.2452
vn 0.9535 -0.2285 0.1968
vn -0.1372 -0.9759 -0.1696
vn -0.0351 -0.9852 -0.1678
vn -0.0709 -0.9519 -0.2982
vn 0.1037 -0.9689 -0.2246
vn -0.4459 0.6614 0.6031
vn -0.5466 0.7474 0.3777
vn -0.3747 0.9131 0.1606
vn -0.4650 0.8554 0.2283
vn 0.0174 0.5819 0.8130
vn -0.0972 0.7777 0.6210
vn -0.0158 -0.9725 -0.2324
vn -0.0112 -0.9865 -0.1634
vn 0.7497 0.5842 -0.3107
vn 0.8971 0.4375 0.0616
vn -0.9073 0.3029 0.2918
vn -0.9534 0.3012 0.0192
g BigRock5_Cube.023_Rock
usemtl Rock
s 1
f 36//1 19//2 56//3
f 31//4 8//5 21//6
f 52//7 6//8 23//9
f 27//10 2//11 18//12
f 48//13 5//14 14//15
f 44//16 2//17 16//18
f 40//19 15//20 6//21
f 42//22 16//23 15//24
f 46//25 1//26 34//27
f 48//28 13//29 46//30
f 23//31 15//32 25//33
f 25//34 16//35 27//36
f 4//37 29//38 19//39
f 29//40 12//41 31//42
f 30//43 9//44 10//45
f 29//46 32//47 30//48
f 20//49 10//50 3//51
f 19//52 30//53 20//54
f 14//55 28//56 13//57
f 26//58 27//59 28//60
f 5//61 26//62 14//63
f 24//64 25//65 26//66
f 13//67 17//68 1//69
f 27//70 17//71 28//72
f 37//73 24//74 5//75
f 50//76 23//77 24//78
f 32//79 7//80 9//81
f 32//82 21//83 22//84
f 54//85 3//86 33//87
f 56//88 20//89 54//90
f 18//91 53//92 17//93
f 55//94 54//95 53//96
f 1//97 53//98 34//99
f 53//100 33//101 34//102
f 21//103 49//104 22//105
f 49//106 52//107 50//108
f 7//109 49//110 38//111
f 38//112 50//113 37//114
f 10//115 47//116 45//117
f 47//118 46//119 45//120
f 3//121 45//122 33//123
f 45//124 34//125 33//126
f 11//127 41//128 12//129
f 43//130 42//131 41//132
f 12//133 39//134 8//135
f 41//136 40//137 39//138
f 4//139 43//140 11//141
f 36//142 44//143 43//144
f 7//145 47//146 9//147
f 47//148 37//149 48//150
f 8//151 51//152 21//153
f 39//154 52//155 51//156
f 2//157 55//158 18//159
f 35//160 56//161 55//162
f 36//1 4//163 19//2
f 31//4 12//164 8//5
f 52//7 40//165 6//8
f 27//10 16//166 2//11
f 48//13 37//167 5//14
f 44//16 35//168 2//17
f 40//19 42//169 15//20
f 42//22 44//170 16//23
f 46//25 13//171 1//26
f 48//28 14//172 13//29
f 23//31 6//173 15//32
f 25//34 15//174 16//35
f 4//37 11//175 29//38
f 29//40 11//176 12//41
f 30//43 32//177 9//44
f 29//46 31//178 32//47
f 20//49 30//179 10//50
f 19//52 29//180 30//53
f 14//55 26//55 28//56
f 26//58 25//181 27//59
f 5//61 24//182 26//62
f 24//64 23//183 25//65
f 13//67 28//184 17//68
f 27//70 18//185 17//71
f 37//73 50//186 24//74
f 50//76 52//187 23//77
f 32//79 22//188 7//80
f 32//82 31//189 21//83
f 54//85 20//190 3//86
f 56//88 19//191 20//89
f 18//91 55//192 53//92
f 55//94 56//193 54//95
f 1//97 17//194 53//98
f 53//100 54//195 33//101
f 21//103 51//196 49//104
f 49//106 51//197 52//107
f 7//109 22//198 49//110
f 38//112 49//199 50//113
f 10//115 9//200 47//116
f 47//118 48//201 46//119
f 3//121 10//202 45//122
f 45//124 46//203 34//125
f 11//127 43//204 41//128
f 43//130 44//205 42//131
f 12//133 41//206 39//134
f 41//136 42//207 40//137
f 4//139 36//208 43//140
f 36//142 35//209 44//143
f 7//145 38//210 47//146
f 47//148 38//211 37//149
f 8//151 39//212 51//152
f 39//154 40//213 52//155
f 2//157 35//214 55//158
f 35//160 36//215 56//161
