# Blender v2.93.3 OBJ File: ''
# www.blender.org
mtllib drone hitbox.mtl
o Cube_Cube.001
v 0.643290 0.538851 -0.630515
v 0.643290 0.538851 0.630515
v 0.643290 0.009427 0.630515
v 0.643290 0.009427 -0.630515
v -0.643290 0.538851 0.630515
v -0.643290 0.009427 0.630515
v -0.643290 0.538851 -0.630515
v -0.643290 0.009427 -0.630515
vt 0.375000 0.250000
vt 0.625000 0.000000
vt 0.375000 0.000000
vt 0.375000 0.500000
vt 0.625000 0.250000
vt 0.375000 0.750000
vt 0.625000 0.500000
vt 0.375000 1.000000
vt 0.625000 0.750000
vt 0.125000 0.750000
vt 0.125000 0.500000
vt 0.875000 0.500000
vt 0.625000 1.000000
vt 0.875000 0.750000
vn 1.0000 -0.0000 0.0000
vn 0.0000 -0.0000 1.0000
vn -1.0000 0.0000 0.0000
vn 0.0000 0.0000 -1.0000
vn 0.0000 1.0000 0.0000
vn 0.0000 -1.0000 -0.0000
usemtl None
s off
f 2/1/1 4/2/1 1/3/1
f 5/4/2 3/5/2 2/1/2
f 7/6/3 6/7/3 5/4/3
f 1/8/4 8/9/4 7/6/4
f 1/10/5 5/4/5 2/11/5
f 8/9/6 3/12/6 6/7/6
f 2/1/1 3/5/1 4/2/1
f 5/4/2 6/7/2 3/5/2
f 7/6/3 8/9/3 6/7/3
f 1/8/4 4/13/4 8/9/4
f 1/10/5 7/6/5 5/4/5
f 8/9/6 4/14/6 3/12/6
