# Blender v2.93.3 OBJ File: ''
# www.blender.org
mtllib tree9.mtl
o Tree9_Plane.020
v 0.477694 1.588363 -0.232036
v 0.689504 2.523580 -0.456773
v 0.740271 2.267358 0.101306
v 0.701707 3.581919 -0.549525
v 0.358506 3.106089 -0.829806
v 0.282419 1.642728 0.245144
v -0.033917 1.556295 -0.199877
v 0.233887 1.786790 -0.723426
v 0.418901 4.384711 -0.812657
v 0.856495 3.116240 0.423022
v 1.011851 3.336980 -0.099571
v 0.697480 4.160264 0.267108
v 0.038451 1.772120 0.747267
v 0.501115 2.417818 0.620560
v 0.056350 2.900249 0.947357
v -0.534066 1.655017 -0.137977
v -0.297677 1.460510 0.327121
v -0.727125 2.293572 0.222414
v -0.103607 2.670927 -0.898549
v -0.389378 1.871999 -0.635640
v -0.519244 3.115794 -0.719253
v 0.746970 4.519351 -0.276637
v 0.504797 3.624660 0.735600
v -0.435810 2.389008 0.712934
v -0.913111 2.358026 -0.357501
v -0.111939 3.771543 -0.944532
v 0.526749 5.194417 0.130050
v 0.219167 5.073562 -0.326246
v -0.013947 5.201765 0.164441
v 0.049282 4.042216 0.901552
v 0.345666 4.866309 0.651937
v -0.266873 4.725983 0.627621
v -0.797167 3.108716 0.549935
v -0.392006 3.610068 0.760028
v -0.844014 4.261285 0.492522
v -0.816856 3.560444 -0.405691
v -0.929960 3.345249 0.063321
v -0.800953 4.446334 -0.132332
v -0.094050 4.763202 -0.703640
v -0.626092 4.369608 -0.720293
v -0.328260 5.057169 -0.276536
v -0.501391 4.989710 0.190970
v -0.077169 1.975353 -0.099806
v -0.093850 0.384952 -0.169301
v -0.201543 0.376218 -0.061936
v 0.051092 0.367932 0.205215
v -0.143640 0.092018 0.288138
v 0.104712 0.095512 0.300175
v 0.157778 0.373626 0.097089
v 0.280990 0.099919 0.126007
v 0.118934 3.572680 -0.116266
v 0.119843 1.986604 -0.059989
v 0.080707 1.936227 -0.124960
v -0.307878 0.099844 -0.135529
v -0.209680 0.368066 0.089023
v -0.101648 0.364678 0.196080
v 0.106945 0.026182 0.281785
v 0.257363 0.026182 0.101474
v 0.291828 0.107180 -0.121280
v 0.288972 0.026182 -0.128206
v -0.319133 0.095512 0.111997
v 0.057790 0.384889 -0.160486
v -0.132017 0.107180 -0.309457
v 0.109389 0.026182 -0.279594
v 0.116459 0.107820 -0.297699
v -0.123344 0.026182 -0.311266
v -0.272510 0.026182 -0.133777
v -0.305371 0.026182 0.098726
v -0.124536 0.026182 0.247291
v 0.121215 3.557784 -0.058728
v 0.144315 3.556308 -0.089185
v 0.061372 3.557784 -0.117841
v 0.081102 3.587042 -0.083629
v 0.063653 3.542887 -0.060302
v 0.098059 3.531377 -0.042358
v -0.003784 0.005644 -0.024098
v 0.047984 3.531377 -0.091820
v -0.065093 1.973975 0.065444
v 0.022256 1.983307 0.091410
v 0.084031 1.987030 0.028990
v 0.165094 0.381808 -0.053884
v -0.118851 1.964560 -0.001965
v -0.018738 1.972562 -0.138288
v 0.094240 3.556308 -0.138649
vt 0.719996 0.453965
vt 0.765930 0.591088
vt 0.679499 0.564335
vt 0.000000 0.254485
vt 0.014640 0.099359
vt 0.063707 0.191852
vt 0.679499 0.453965
vt 0.646821 0.566399
vt 0.603776 0.459150
vt 0.137244 0.765932
vt 0.137244 0.841592
vt 0.069122 0.798292
vt 0.079158 0.712119
vt 0.036006 0.377600
vt 0.792108 0.297886
vt 0.708757 0.283425
vt 0.747346 0.148687
vt 0.639553 0.453965
vt 0.577241 0.359162
vt 0.659610 0.289888
vt 0.423831 0.755409
vt 0.348204 0.764062
vt 0.414843 0.644707
vt 0.183863 0.544232
vt 0.230029 0.422242
vt 0.254076 0.604329
vt 0.079438 0.680308
vt 0.031794 0.572600
vt 0.124290 0.554439
vt 0.520649 0.255970
vt 0.527312 0.101525
vt 0.591218 0.182941
vt 0.593149 0.787382
vt 0.593149 0.950395
vt 0.520649 0.868219
vt 0.497774 0.661549
vt 0.195042 0.705583
vt 0.730095 0.448569
vt 0.659610 0.405354
vt 0.730095 0.376009
vt 0.326161 0.231192
vt 0.348204 0.363077
vt 0.262038 0.329890
vt 0.851476 0.165563
vt 0.794714 0.084647
vt 0.873673 0.000000
vt 0.441904 0.147573
vt 0.519430 0.145584
vt 0.426190 0.273176
vt 0.597799 0.792982
vt 0.660989 0.720541
vt 0.660989 0.847626
vt 0.358833 0.362899
vt 0.429223 0.375522
vt 0.348204 0.235472
vt 0.520649 0.288526
vt 0.500125 0.511837
vt 0.419865 0.519570
vt 0.496380 0.375522
vt 0.738556 0.738476
vt 0.761490 0.839490
vt 0.679499 0.839490
vt 0.183863 0.257812
vt 0.266779 0.167198
vt 0.278613 0.422243
vt 0.212929 0.379958
vt 0.485675 0.764062
vt 0.502164 0.848902
vt 0.429830 0.848902
vt 0.661632 0.330332
vt 0.727995 0.297886
vt 0.593149 0.869214
vt 0.124690 0.296180
vt 0.183863 0.388463
vt 0.101277 0.438754
vt 0.282727 0.786865
vt 0.322082 0.663211
vt 0.520649 0.000000
vt 0.792108 0.261494
vt 0.280589 0.000000
vt 0.348204 0.071993
vt 0.605232 0.000000
vt 0.659610 0.122074
vt 0.705754 0.000000
vt 0.792108 0.028207
vt 0.075103 0.453174
vt 0.156560 0.438754
vt 0.000000 0.487662
vt 0.322082 0.486357
vt 0.502405 0.764062
vt 0.873673 0.278373
vt 0.813339 0.388364
vt 0.540423 0.720541
vt 0.659610 0.110653
vt 0.156560 0.712119
vt 0.138245 0.134994
vt 0.097919 0.000000
vt 0.183863 0.019966
vt 0.000000 0.758065
vt 0.005422 0.833973
vt 0.061103 0.884605
vt 0.132696 0.923250
vt 0.561573 0.582583
vt 0.520649 0.471908
vt 0.603710 0.692472
vt 0.800710 0.465157
vt 0.679499 0.720541
vt 0.723240 0.723120
vt 0.800710 0.738476
vt 0.344009 0.657078
vt 0.322082 0.425376
vt 0.344009 0.422243
vt 0.957012 0.460692
vt 0.982632 0.504826
vt 0.946294 0.502416
vt 0.935100 0.041529
vt 0.910054 0.000000
vt 0.946294 0.000726
vt 0.512881 0.608277
vt 0.502405 0.383710
vt 0.512881 0.375522
vt 0.756592 0.297886
vt 0.730095 0.342636
vt 0.734350 0.298369
vt 0.883133 0.042983
vt 0.910054 0.000000
vt 0.905369 0.041978
vt 0.502405 0.745548
vt 0.512841 0.711522
vt 0.514330 0.745548
vt 0.148796 0.712119
vt 0.137292 0.744275
vt 0.137244 0.712209
vt 0.757145 0.342636
vt 0.730095 0.386410
vt 0.734933 0.343451
vt 0.834095 0.920477
vt 0.800710 0.959020
vt 0.812000 0.919500
vt 0.866904 0.962845
vt 0.835735 0.972539
vt 0.836847 0.960493
vt 0.801332 0.970930
vt 0.514346 0.709427
vt 0.503230 0.677029
vt 0.514346 0.673432
vt 0.742003 0.422765
vt 0.731274 0.388339
vt 0.741548 0.386410
vt 0.507607 0.608277
vt 0.513979 0.637986
vt 0.502405 0.637332
vt 0.507607 0.673432
vt 0.517916 0.672082
vt 0.512881 0.377742
vt 0.519336 0.383626
vt 0.513731 0.383626
vt 0.518527 0.398907
vt 0.512881 0.393335
vt 0.519306 0.391381
vt 0.519712 0.385748
vt 0.513162 0.391381
vt 0.512881 0.383626
vt 0.963876 0.004825
vt 0.972222 0.007396
vt 0.966814 0.009489
vt 0.366244 0.845788
vt 0.390297 0.804425
vt 0.400712 0.845788
vt 0.348204 0.782194
vt 0.348410 0.816496
vt 0.411560 0.764186
vt 0.429830 0.793354
vt 0.429601 0.827781
vt 0.904992 0.507882
vt 0.903115 0.277795
vt 0.910054 0.509137
vt 0.982632 0.232366
vt 0.969441 0.231410
vt 0.942135 0.505678
vt 0.933501 0.278845
vt 0.946294 0.509532
vt 0.970006 0.504826
vt 0.965301 0.725938
vt 0.964976 0.505647
vt 0.881522 0.712411
vt 0.910054 0.757752
vt 0.873553 0.757752
vt 0.982235 1.000000
vt 0.960284 0.953743
vt 0.982235 0.956186
vt 0.156560 0.441648
vt 0.178596 0.657746
vt 0.163748 0.658737
vt 0.890424 0.276986
vt 0.920671 0.278265
vt 0.979117 0.725366
vt 0.882694 0.516861
vt 0.903720 0.712821
vt 0.849456 0.693504
vt 0.835021 0.687493
vt 0.333750 0.657423
vt 0.343882 0.889279
vt 0.338186 0.889475
vt 0.177199 0.869153
vt 0.173430 0.872583
vt 0.862621 0.456063
vt 0.979392 0.462247
vt 0.912912 0.040634
vt 0.508172 0.606761
vt 0.766298 0.342636
vt 0.873673 0.001390
vt 0.502929 0.710163
vt 0.148796 0.747394
vt 0.766473 0.386410
vt 0.865726 0.974651
vt 0.502405 0.710163
vt 0.730095 0.422765
vt 0.517916 0.608698
vt 0.520175 0.375522
vt 0.513904 0.398907
vt 0.518398 0.391381
vt 0.970319 0.000000
vt 0.377528 0.764062
vt 0.946294 0.996817
vt 0.178596 0.438754
vt 0.893426 0.509137
vt 0.866904 0.453965
vn 0.9424 -0.2631 -0.2065
vn 0.6883 -0.0712 -0.7219
vn 0.7862 -0.4893 0.3775
vn 0.0708 -0.9874 0.1415
vn 0.0333 -0.9209 -0.3884
vn 0.6493 -0.0205 -0.7603
vn 0.9155 0.1922 0.3534
vn 0.4643 -0.1618 0.8708
vn -0.8695 -0.4145 0.2686
vn -0.4901 -0.1093 -0.8648
vn 0.8337 0.1168 -0.5396
vn 0.7994 0.2060 0.5643
vn -0.2809 -0.1633 0.9458
vn -0.8839 -0.4020 0.2388
vn -0.4324 -0.0409 -0.9008
vn -0.4355 -0.0384 -0.8994
vn -0.4331 -0.0403 -0.9004
vn -0.0030 0.9672 -0.2541
vn -0.1117 0.3246 0.9392
vn -0.4834 0.0239 0.8751
vn -0.9766 0.0709 -0.2030
vn -0.9767 0.0780 -0.1998
vn -0.9767 0.0790 -0.1993
vn -0.4333 0.6137 -0.6600
vn -0.7964 0.5659 -0.2133
vn -0.7868 0.5371 -0.3041
vn -0.9489 0.1085 -0.2964
vn -0.8909 0.4486 0.0715
vn -0.9933 0.1100 -0.0359
vn -0.9676 -0.0268 0.2510
vn -0.5724 0.5287 0.6268
vn -0.3369 0.1481 0.9298
vn -0.4353 0.1541 0.8870
vn -0.2900 0.7423 0.6041
vn -0.1942 0.7353 0.6493
vn 0.0459 0.8384 0.5431
vn -0.3996 0.9166 -0.0157
vn -0.0538 0.9596 -0.2763
vn -0.0779 0.8008 -0.5939
vn -0.1445 0.2360 -0.9609
vn -0.4362 -0.0379 -0.8990
vn -0.7688 -0.0660 -0.6361
vn -0.9766 0.0700 -0.2034
vn -0.9474 -0.1391 0.2884
vn -0.9694 -0.1586 0.1874
vn -0.4419 -0.0187 0.8969
vn -0.4127 -0.0203 0.9107
vn -0.3367 0.0357 0.9409
vn 0.4319 0.1156 0.8945
vn 0.8470 0.1431 0.5119
vn 0.8788 0.2024 0.4321
vn 0.6228 0.5427 -0.5636
vn 0.6371 0.5593 -0.5304
vn 0.2904 0.6067 -0.7400
vn -0.7049 0.0280 -0.7088
vn -0.5457 -0.1128 -0.8304
vn -0.7250 -0.5287 -0.4413
vn -0.7999 -0.2816 0.5299
vn -0.7798 -0.3356 0.5284
vn -0.5577 -0.3879 0.7338
vn 0.3738 0.0395 0.9267
vn 0.5308 -0.0820 0.8435
vn 0.5970 -0.0779 0.7985
vn 0.9597 0.1863 0.2104
vn 0.9366 0.2470 0.2484
vn 0.8455 0.1112 -0.5223
vn -0.0319 0.2365 -0.9711
vn 0.2392 0.0017 -0.9710
vn 0.1835 -0.0396 -0.9822
vn -0.1688 -0.2531 -0.9526
vn -0.1844 -0.8613 -0.4735
vn -0.2261 -0.8671 -0.4438
vn -0.2191 -0.9348 -0.2796
vn 0.2963 -0.9547 -0.0252
vn 0.3257 -0.8652 0.3812
vn 0.7571 -0.4452 0.4782
vn 0.7547 -0.4460 0.4811
vn 0.7544 -0.4461 0.4815
vn 0.7574 -0.4451 0.4778
vn 0.8338 -0.2918 0.4686
vn 0.2382 -0.1004 -0.9660
vn 0.6405 -0.1216 -0.7583
vn 0.7981 -0.3056 -0.5194
vn 0.9583 -0.2062 0.1978
vn 0.9368 -0.2778 -0.2128
vn 0.8060 -0.0609 -0.5887
vn -0.7071 0.0383 -0.7061
vn -0.0504 0.3199 0.9461
vn 0.6505 0.3630 0.6672
vn 0.6537 0.3609 0.6651
vn 0.6502 0.3632 0.6673
vn 0.8624 -0.0175 -0.5059
vn -0.6577 0.4196 -0.6256
vn -0.6665 0.3248 0.6710
vn -0.6605 0.3289 0.6750
vn -0.6593 0.3297 0.6757
vn 0.6978 -0.4173 0.5821
vn 0.9896 -0.0465 0.1362
vn -0.9294 0.3673 -0.0354
vn -0.9286 0.3698 -0.0310
vn -0.9284 0.3703 -0.0300
vn 0.0418 0.4499 -0.8921
vn 0.0503 0.4451 -0.8940
vn 0.0522 0.4441 -0.8944
vn 0.6926 -0.2128 -0.6892
vn 0.0472 0.0274 -0.9985
vn -0.6565 -0.3313 -0.6777
vn -0.9814 -0.1856 -0.0479
vn -0.6016 -0.5398 0.5887
vn -0.1424 -0.2581 0.9556
vn 0.3504 0.9100 0.2217
vn -0.1908 0.7977 -0.5721
vn -0.8911 0.4296 0.1465
vn -0.1835 0.6292 0.7553
vn 0.0560 -0.9973 0.0467
vn -0.0454 -0.9974 0.0553
vn 0.0103 -0.9971 -0.0756
vn 0.0736 -0.9972 0.0101
vn -0.9053 0.1072 0.4109
vn -0.2931 0.0965 0.9512
vn 0.5512 0.0335 0.8337
vn 0.7967 -0.0012 0.6043
vn 0.6357 0.4465 -0.6298
vn 0.6364 0.4475 -0.6282
vn 0.6354 0.4465 -0.6300
vn 0.9072 0.4154 0.0665
vn -0.9207 0.0625 -0.3853
vn -0.7846 0.0678 0.6162
vn -0.2905 0.0621 0.9549
vn 0.7084 0.0622 0.7030
vn 0.7079 0.0621 0.7036
vn 0.7075 0.0621 0.7039
vn 0.9274 0.0276 0.3731
vn 0.7049 0.0058 -0.7093
vn 0.1374 0.0128 -0.9904
vn -0.5333 0.0379 -0.8451
vn -0.9171 0.0758 -0.3913
vn -0.9190 0.0759 -0.3868
vn -0.9158 0.0757 -0.3944
vn 0.1294 -0.0095 -0.9915
vn -0.5482 0.0404 -0.8354
vn -0.5481 0.0423 -0.8353
vn -0.0634 0.3280 0.9426
vn 0.6544 0.3605 0.6647
vn 0.7221 -0.0241 -0.6914
vn -0.6494 0.4118 -0.6393
vn -0.6669 0.3244 0.6709
vn 0.6955 -0.1632 0.6998
vn 0.9486 -0.3147 0.0323
vn -0.9295 0.3672 -0.0358
vn 0.0410 0.4504 -0.8919
vn 0.6440 0.0426 -0.7639
vn 0.1314 -0.2255 -0.9654
vn -0.7638 -0.0674 -0.6419
vn -0.8931 -0.4318 -0.1262
vn -0.6122 -0.2642 0.7452
vn -0.0334 -0.5339 0.8449
vn 0.4935 0.8465 0.1996
vn -0.2183 0.8866 -0.4077
vn -0.7930 0.5813 0.1820
vn -0.1548 0.5086 0.8470
vn -0.0105 -0.9974 0.0708
vn -0.0721 -0.9973 -0.0102
vn -0.0568 -0.9972 -0.0477
vn 0.0492 -0.9971 -0.0584
vn -0.7843 0.1184 0.6089
vn -0.4314 0.1072 0.8958
vn 0.7097 0.0261 0.7040
vn 0.9277 -0.0011 0.3734
vn 0.6366 0.4478 -0.6278
vn 0.9115 0.4079 0.0519
vn -0.9973 0.0538 -0.0508
vn -0.7004 0.0803 0.7093
vn -0.0612 0.0821 0.9947
vn 0.7088 0.0622 0.7026
vn 0.9976 0.0477 0.0509
vn 0.8488 0.0219 -0.5283
vn 0.0580 0.0220 -0.9981
vn -0.5483 0.0385 -0.8354
vn -0.9203 0.0760 -0.3837
vn 0.6759 -0.0119 -0.7369
g Tree9_Plane.020_Tree9_Plane.020_Leaves.005
usemtl Leaves.005
s 1
f 1/1/1 2/2/1 3/3/1
f 4/4/2 2/5/2 5/6/2
f 1/7/3 3/8/3 6/9/3
f 1/10/4 6/11/4 7/12/4
f 1/10/5 7/12/5 8/13/5
f 4/4/6 5/6/6 9/14/6
f 10/15/7 11/16/7 12/17/7
f 13/18/8 14/19/8 15/20/8
f 16/21/9 17/22/9 18/23/9
f 19/24/10 20/25/10 21/26/10
f 4/27/11 9/28/11 22/29/11
f 10/30/12 12/31/12 23/32/12
f 13/33/13 15/34/13 24/35/13
f 16/21/14 18/23/14 25/36/14
f 19/24/15 21/26/16 26/37/17
f 27/38/18 28/39/18 29/40/18
f 30/41/19 31/42/19 32/43/19
f 33/44/20 34/45/20 35/46/20
f 36/47/21 37/48/22 38/49/23
f 39/50/24 40/51/24 41/52/24
f 41/53/25 38/49/25 42/54/25
f 41/53/26 40/55/26 38/49/26
f 40/55/27 36/47/27 38/49/27
f 38/49/28 35/56/28 42/54/28
f 38/49/29 37/48/29 35/56/29
f 37/57/30 33/58/30 35/59/30
f 35/60/31 32/61/31 42/62/31
f 35/63/32 34/64/32 32/43/32
f 34/64/33 30/41/33 32/43/33
f 32/43/34 29/65/34 42/66/34
f 32/43/35 31/42/35 29/65/35
f 31/67/36 27/68/36 29/69/36
f 29/40/37 41/70/37 42/71/37
f 29/40/38 28/39/38 41/70/38
f 28/72/39 39/50/39 41/52/39
f 26/73/40 40/74/40 39/75/40
f 26/37/17 21/26/16 40/76/41
f 21/26/42 36/77/42 40/76/42
f 25/78/43 37/48/22 36/47/21
f 25/36/44 18/23/44 37/57/44
f 18/23/45 33/58/45 37/57/45
f 24/79/46 34/45/46 33/44/46
f 24/80/47 15/81/47 34/64/47
f 15/81/48 30/41/48 34/64/48
f 23/32/49 31/82/49 30/83/49
f 23/32/50 12/31/50 31/82/50
f 12/17/51 27/84/51 31/85/51
f 22/29/52 28/86/52 27/87/52
f 22/29/53 9/28/53 28/86/53
f 9/28/54 39/88/54 28/86/54
f 21/26/55 25/89/55 36/77/55
f 21/26/56 20/25/56 25/89/56
f 20/90/57 16/21/57 25/36/57
f 18/91/58 24/79/58 33/44/58
f 18/91/59 17/92/59 24/79/59
f 17/93/60 13/33/60 24/35/60
f 15/20/61 23/32/61 30/83/61
f 15/20/62 14/19/62 23/32/62
f 14/19/63 10/30/63 23/32/63
f 12/17/64 22/94/64 27/84/64
f 12/17/65 11/16/65 22/94/65
f 11/95/66 4/27/66 22/29/66
f 9/14/67 26/73/67 39/75/67
f 9/14/68 5/6/68 26/73/68
f 5/6/69 19/96/69 26/73/69
f 8/97/70 20/98/70 19/96/70
f 8/13/71 7/12/71 20/99/71
f 7/12/72 16/100/72 20/99/72
f 7/12/73 17/101/73 16/100/73
f 7/12/74 6/11/74 17/101/74
f 6/11/75 13/102/75 17/101/75
f 6/9/76 14/103/77 13/104/78
f 6/9/76 3/8/79 14/103/77
f 3/8/80 10/105/80 14/103/80
f 5/6/81 8/97/81 19/96/81
f 5/6/82 2/5/82 8/97/82
f 2/2/83 1/1/83 8/106/83
f 3/8/84 11/107/84 10/105/84
f 3/3/85 2/2/85 11/108/85
f 2/2/86 4/109/86 11/108/86
g Tree9_Plane.020_Tree9_Plane.020_Trunk.005
usemtl Trunk.005
f 43/110/87 44/111/87 45/112/87
f 46/113/88 47/114/88 48/115/88
f 49/116/89 48/117/90 50/118/91
f 51/119/92 52/120/92 53/121/92
f 44/122/93 54/123/93 45/124/93
f 55/125/94 47/126/95 56/127/96
f 50/128/97 57/129/97 58/130/97
f 59/131/98 58/132/98 60/133/98
f 45/134/99 61/135/100 55/136/101
f 62/137/102 63/138/103 44/139/104
f 59/140/105 64/141/105 65/142/105
f 65/142/106 66/143/106 63/138/106
f 63/144/107 67/145/107 54/146/107
f 54/147/108 68/148/108 61/149/108
f 61/150/109 69/151/109 47/152/109
f 48/153/110 69/151/110 57/154/110
f 51/155/111 70/156/111 71/157/111
f 51/158/112 72/159/112 73/160/112
f 72/161/113 74/162/113 73/163/113
f 70/164/114 74/165/114 75/166/114
f 57/167/115 76/168/115 58/169/115
f 68/170/116 76/168/116 69/171/116
f 76/168/117 66/172/117 64/173/117
f 76/168/118 60/174/118 58/169/118
f 77/175/119 78/176/119 74/177/119
f 75/166/120 78/178/120 79/179/120
f 75/180/121 80/181/121 70/182/121
f 70/183/122 52/184/122 71/185/122
f 62/186/123 59/187/124 65/188/125
f 50/189/126 81/190/126 49/191/126
f 45/192/127 82/193/127 43/194/127
f 82/195/128 56/127/128 78/176/128
f 78/178/129 46/113/129 79/179/129
f 79/196/130 49/116/131 80/181/132
f 80/197/133 81/190/133 52/184/133
f 53/198/134 81/199/134 62/186/134
f 53/200/135 44/139/135 83/201/135
f 83/202/136 72/203/136 84/204/136
f 43/194/137 77/205/138 72/206/139
f 84/207/140 53/200/140 83/201/140
f 43/110/141 83/202/141 44/111/142
f 46/113/143 56/208/143 47/114/143
f 49/116/89 46/209/144 48/117/90
f 51/119/145 71/210/145 52/120/145
f 44/122/146 63/211/146 54/123/146
f 55/125/94 61/212/147 47/126/95
f 50/128/148 48/213/148 57/129/148
f 59/131/149 50/214/149 58/132/149
f 45/134/99 54/215/150 61/135/100
f 62/137/102 65/142/151 63/138/103
f 59/140/152 60/216/152 64/141/152
f 65/142/153 64/141/153 66/143/153
f 63/144/154 66/217/154 67/145/154
f 54/147/155 67/218/155 68/148/155
f 61/150/156 68/219/156 69/151/156
f 48/153/157 47/152/157 69/151/157
f 51/155/158 73/220/158 70/156/158
f 51/158/159 84/221/159 72/159/159
f 72/161/160 77/222/160 74/162/160
f 70/164/161 73/223/161 74/165/161
f 57/167/162 69/171/162 76/168/162
f 68/170/163 67/224/163 76/168/163
f 76/168/164 67/224/164 66/172/164
f 76/168/165 64/173/165 60/174/165
f 77/175/166 82/195/166 78/176/166
f 75/166/167 74/165/167 78/178/167
f 75/180/168 79/196/168 80/181/168
f 70/183/169 80/197/169 52/184/169
f 62/186/123 81/199/170 59/187/124
f 50/189/171 59/225/171 81/190/171
f 45/192/172 55/226/172 82/193/172
f 82/195/173 55/125/173 56/127/173
f 78/178/174 56/208/174 46/113/174
f 79/196/130 46/209/175 49/116/131
f 80/197/176 49/191/176 81/190/176
f 53/198/177 52/227/177 81/199/177
f 53/200/178 62/137/178 44/139/178
f 83/202/141 43/110/141 72/203/179
f 43/194/137 82/193/180 77/205/138
f 84/207/181 51/228/181 53/200/181
