# Blender v2.93.3 OBJ File: ''
# www.blender.org
mtllib tree11.mtl
o Tree11_Plane.014
v -0.215238 4.509489 -0.019424
v -0.517638 3.314213 -0.150020
v -0.483107 3.260164 0.006215
v -0.265841 0.537134 -0.110629
v -0.284354 2.619385 -0.333433
v -0.131774 0.553269 -0.245351
v -0.250974 3.949195 -0.206477
v -0.420037 3.350391 -0.329549
v -0.410998 2.713766 0.082011
v -0.400175 1.786762 0.085123
v -0.260252 1.748294 0.231247
v -0.046443 2.738660 -0.165251
v 0.188555 1.405773 -0.071070
v -0.015600 1.789557 -0.193955
v 0.048638 0.519829 0.222371
v -0.233011 0.103282 0.409600
v 0.152379 0.108703 0.428277
v 0.179887 0.530633 0.085939
v 0.425924 0.115542 0.158006
v -0.104681 4.573851 -0.057516
v -0.123590 2.639354 -0.293327
v -0.632353 3.090791 -0.213198
v -0.589477 2.900616 -0.128051
v -0.632142 3.040160 -0.373514
v -0.435101 2.626586 -0.234151
v -0.391215 3.018826 -0.491900
v -0.488328 0.115542 -0.247901
v -0.277514 0.520161 0.076536
v -0.142326 0.514394 0.208811
v 0.155845 0.001119 0.399741
v 0.389262 0.001119 0.119936
v 0.442744 0.126810 -0.225730
v 0.438312 0.001119 -0.236479
v -0.505339 0.108703 0.136267
v 0.170607 0.127803 -0.499496
v 0.056360 0.552625 -0.232373
v 0.159637 0.001119 -0.471401
v -0.201517 0.001119 -0.520549
v -0.214975 0.126810 -0.517743
v -0.432989 0.001119 -0.245124
v -0.483984 0.001119 0.115672
v -0.203365 0.001119 0.346212
v 1.055732 2.107150 -0.066759
v 1.095695 2.097813 -0.111716
v 1.049500 2.083018 -0.106971
v 1.100617 2.096351 -0.024820
v 1.115918 2.143770 -0.065394
v 1.140205 2.086047 -0.069971
v 1.124389 2.064984 -0.109686
v -0.982308 4.062105 -0.840852
v -1.044467 4.042060 -0.847584
v -1.006718 4.036283 -0.815405
v -0.971322 4.049350 -0.904315
v -1.030508 4.088867 -0.886641
v -1.033481 4.029305 -0.911047
v -1.051429 4.007625 -0.876736
v -0.101127 4.550637 0.032141
v -0.065131 4.548337 -0.015318
v -0.194376 4.550638 -0.059969
v -0.163631 4.596229 -0.006658
v -0.190821 4.527424 0.029688
v -0.137210 4.509489 0.057651
v -0.019824 0.001119 -0.067189
v -0.117036 2.739499 0.010149
v -0.084952 1.753647 0.264854
v 0.040220 1.735492 0.161160
v 0.039913 1.182713 -0.238274
v 0.266169 1.115226 -0.108704
v 0.080946 0.969812 -0.239750
v -0.789494 3.556456 -0.652980
v 0.176188 1.442161 0.067286
v -0.009540 1.430377 0.332396
v 0.029502 1.091292 0.280130
v 0.239401 1.237824 0.202439
v 0.189839 0.545455 -0.101440
v 0.702246 1.660691 -0.078074
v 0.784669 1.625185 -0.172584
v 1.129157 2.064773 -0.032678
v 0.806421 1.495849 -0.089970
v 1.054090 2.082346 -0.030056
v 0.739655 1.553861 0.008431
v -0.516968 2.695206 -0.050870
v -0.238811 2.732162 0.133197
v 0.313689 1.096455 0.025304
v 0.298060 1.136132 0.146007
v 0.208854 1.343444 0.135787
v 0.705054 1.619453 -0.012607
v 0.736398 1.669162 -0.144722
v 0.228034 1.260832 -0.130658
v 0.808686 1.544164 -0.154338
v 0.781680 1.499750 -0.021940
v -0.381616 3.259827 -0.434975
v -0.722248 3.573840 -0.697571
v -0.672268 3.498843 -0.839259
v -0.373200 3.156555 -0.483314
v -0.735014 3.436364 -0.878832
v -0.538721 3.004196 -0.463511
v -0.867298 3.435843 -0.772370
v -0.813130 3.407483 -0.848457
v -0.853564 3.497171 -0.692131
v -0.942809 4.042652 -0.864973
v -0.987520 4.013994 -0.926303
v -0.276449 2.933095 -0.403765
v -0.278576 3.185573 -0.358969
v -0.143159 4.548337 -0.092394
v -0.686851 3.559558 -0.757958
vt 0.946401 0.174398
vt 0.946098 0.274083
vt 0.932406 0.275936
vt 0.922351 0.672040
vt 0.907697 0.843822
vt 0.906659 0.673146
vt 0.956378 0.546937
vt 0.952809 0.500596
vt 0.968091 0.494565
vt 0.272117 0.548954
vt 0.269639 0.472627
vt 0.286177 0.468749
vt 0.248618 0.179078
vt 0.259112 0.067746
vt 0.267880 0.103667
vt 0.035380 0.938241
vt 0.060139 0.974313
vt 0.028939 0.974313
vt 0.072214 0.928653
vt 0.094081 0.967725
vt 0.062648 0.967725
vt 0.303756 0.611060
vt 0.292559 0.480646
vt 0.303756 0.473606
vt 0.265427 0.594305
vt 0.243247 0.581454
vt 0.250096 0.565368
vt 0.079929 0.825499
vt 0.066577 0.828862
vt 0.077521 0.808128
vt 0.242687 0.869778
vt 0.225937 0.903978
vt 0.228889 0.870158
vt 0.838828 0.308917
vt 0.856736 0.346827
vt 0.829619 0.321190
vt 0.271611 0.368447
vt 0.292559 0.332401
vt 0.287169 0.367331
vt 0.846504 0.956482
vt 0.837477 0.985778
vt 0.836491 0.957207
vt 0.927239 0.340077
vt 0.918126 0.368789
vt 0.916959 0.340063
vt 0.115554 0.931655
vt 0.094595 0.971349
vt 0.100441 0.932786
vt 0.876110 0.292154
vt 0.838591 0.294255
vt 0.983340 0.607887
vt 0.992904 0.634036
vt 0.982280 0.633748
vt 0.993615 0.664083
vt 0.983340 0.665359
vt 0.175246 0.980568
vt 0.165327 0.951727
vt 0.175246 0.948877
vt 0.354114 0.983834
vt 0.345053 0.953724
vt 0.354114 0.952110
vt 0.260788 0.334175
vt 0.290095 0.324333
vt 0.266894 0.988237
vt 0.276415 0.958319
vt 0.275958 0.988237
vt 0.167061 0.703747
vt 0.170878 0.700499
vt 0.170878 0.704519
vt 0.946395 0.468835
vt 0.951225 0.470348
vt 0.947806 0.474399
vt 0.090875 0.609566
vt 0.094405 0.612852
vt 0.089818 0.614760
vt 0.386830 0.729530
vt 0.383076 0.726349
vt 0.386830 0.725946
vt 0.167061 0.727538
vt 0.170654 0.723493
vt 0.170629 0.727538
vt 0.167091 0.692381
vt 0.171144 0.695661
vt 0.165793 0.698147
vt 0.300001 0.309818
vt 0.305411 0.309620
vt 0.303566 0.314020
vt 0.079929 0.923726
vt 0.074800 0.925432
vt 0.076555 0.922672
vt 0.158696 0.685758
vt 0.164318 0.690923
vt 0.159412 0.690923
vt 0.862775 0.286561
vt 0.856935 0.281684
vt 0.863004 0.279928
vt 0.949907 0.170814
vt 0.942353 0.171911
vt 0.945780 0.166040
vt 0.374762 0.725991
vt 0.380411 0.720852
vt 0.379742 0.725992
vt 0.588674 0.784389
vt 0.608969 0.748588
vt 0.618733 0.784389
vt 0.572858 0.728849
vt 0.573083 0.758807
vt 0.628085 0.713122
vt 0.644056 0.738596
vt 0.643901 0.768662
vt 0.722049 0.972289
vt 0.708726 0.892097
vt 0.722049 0.890689
vt 0.277672 0.054954
vt 0.259972 0.043506
vt 0.279257 0.037264
vt 0.603276 0.898005
vt 0.597392 0.845685
vt 0.618111 0.850295
vt 0.747679 0.606846
vt 0.734772 0.630898
vt 0.723682 0.632894
vt 0.760743 0.632894
vt 0.895510 0.069757
vt 0.899321 0.164075
vt 0.878433 0.121347
vt 0.000000 0.663782
vt 0.018215 0.642030
vt 0.027696 0.661881
vt 0.278716 0.000000
vt 0.290498 0.004724
vt 0.611587 0.990754
vt 0.612207 0.946856
vt 0.614730 0.992796
vt 0.171165 0.100400
vt 0.208459 0.073470
vt 0.172703 0.103625
vt 0.176613 0.103387
vt 0.966363 0.802554
vt 0.951433 0.852488
vt 0.963846 0.800424
vt 0.298588 0.417652
vt 0.301676 0.471366
vt 0.298485 0.473606
vt 0.949329 0.466794
vt 0.958019 0.421255
vt 0.052017 0.706952
vt 0.055474 0.759452
vt 0.052220 0.760426
vt 0.617870 0.990929
vt 0.305411 0.008899
vt 0.814178 0.742486
vt 0.820675 0.666576
vt 0.836530 0.672469
vt 0.258097 0.548082
vt 0.292559 0.697018
vt 0.285017 0.550266
vt 0.947798 0.945036
vt 0.951433 0.800510
vt 0.951433 0.948357
vt 0.856968 0.953780
vt 0.840187 0.956482
vt 0.836491 0.938829
vt 0.751672 0.374382
vt 0.746200 0.522565
vt 0.730629 0.521674
vt 0.884568 0.000000
vt 0.880861 0.070849
vt 0.292559 0.369066
vt 0.298344 0.324333
vt 0.304266 0.368167
vt 0.696529 0.991359
vt 0.686883 0.945851
vt 0.696529 0.942661
vt 0.037619 0.657761
vt 0.057932 0.610854
vt 0.044923 0.603104
vt 0.869750 0.346827
vt 0.869750 0.372469
vt 0.860079 0.349855
vt 0.850027 0.353016
vt 0.948689 0.374322
vt 0.952611 0.422472
vt 0.939437 0.378214
vt 0.947231 0.425602
vt 0.991284 0.602891
vt 0.986567 0.556050
vt 0.991284 0.552899
vt 0.259935 0.056050
vt 0.210952 0.077690
vt 0.208193 0.066370
vt 0.955805 0.905487
vt 0.957100 0.854392
vt 0.966363 0.905357
vt 0.949907 0.295092
vt 0.406720 0.982461
vt 0.420580 0.940781
vt 0.420580 0.991925
vt 0.257202 0.887020
vt 0.256751 0.843147
vt 0.268861 0.884792
vt 0.243247 0.843657
vt 0.249092 0.890759
vt 0.268421 0.222272
vt 0.294949 0.256076
vt 0.288172 0.259285
vt 0.238210 0.906054
vt 0.235432 0.958008
vt 0.856968 0.917928
vt 0.848818 0.867083
vt 0.856833 0.866673
vt 0.065913 0.876930
vt 0.930089 0.988269
vt 0.930163 0.943372
vt 0.933695 0.941273
vt 0.936843 0.942957
vt 0.595597 0.899189
vt 0.618111 0.940610
vt 0.615754 0.943957
vt 0.986057 0.790735
vt 0.986216 0.737974
vt 0.989611 0.736847
vt 0.992762 0.739184
vt 0.302314 0.307589
vt 0.268861 0.801198
vt 0.266742 0.797819
vt 0.238898 0.840576
vt 0.202774 0.811647
vt 0.242125 0.826504
vt 0.205049 0.869778
vt 0.242125 0.854728
vt 0.264965 0.201745
vt 0.273033 0.211851
vt 0.258060 0.899085
vt 0.237896 0.279553
vt 0.258950 0.221301
vt 0.266029 0.237038
vt 0.258339 0.174158
vt 0.922351 0.845054
vt 0.968091 0.593025
vt 0.963184 0.593421
vt 0.050942 0.938161
vt 0.087687 0.929381
vt 0.299056 0.608853
vt 0.876110 0.322340
vt 0.846504 0.987429
vt 0.927239 0.369959
vt 0.125426 0.971349
vt 0.993615 0.608173
vt 0.164878 0.981196
vt 0.343932 0.983675
vt 0.260390 0.325434
vt 0.266484 0.956443
vt 0.165793 0.698147
vt 0.094405 0.609317
vt 0.382044 0.731341
vt 0.165793 0.721767
vt 0.171144 0.691723
vt 0.078927 0.928483
vt 0.165091 0.683885
vt 0.858056 0.286561
vt 0.373957 0.719067
vt 0.598407 0.713014
vt 0.707927 0.971185
vt 0.759614 0.605481
vt 0.883653 0.166040
vt 0.877351 0.093839
vt 0.607264 0.948680
vt 0.304266 0.421061
vt 0.057932 0.705205
vt 0.617870 0.943957
vt 0.271867 0.176397
vt 0.836530 0.844347
vt 0.821157 0.846552
vt 0.287908 0.698620
vt 0.283524 0.697391
vt 0.937540 0.800424
vt 0.845904 0.917236
vt 0.756431 0.374363
vt 0.899321 0.000494
vt 0.681886 0.989926
vt 0.958019 0.370015
vt 0.979871 0.603444
vt 0.414460 0.939825
vt 0.251689 0.843156
vt 0.242687 0.957117
vt 0.057932 0.876283
vt 0.924878 0.989002
vt 0.936843 0.988423
vt 0.979246 0.786861
vt 0.992762 0.790387
vt 0.197270 0.840790
vt 0.243376 0.910327
vt 0.214668 0.323485
vt 0.210682 0.324333
vn -0.9378 0.2068 0.2788
vn -0.7015 -0.0820 -0.7079
vn -0.8570 0.3243 -0.4005
vn -0.7231 -0.0061 0.6908
vn 0.5738 0.0434 -0.8178
vn -0.0497 0.4372 0.8980
vn 0.6134 0.4732 0.6324
vn 0.6160 0.4718 0.6309
vn 0.6131 0.4732 0.6325
vn 0.8344 0.0587 -0.5481
vn -0.8432 0.0496 0.5353
vn -0.9792 -0.1939 0.0600
vn -0.5104 -0.4316 -0.7437
vn -0.6354 0.5209 -0.5700
vn -0.6141 0.4516 0.6473
vn 0.6978 -0.4173 0.5821
vn 0.9896 -0.0465 0.1362
vn -0.8755 0.4832 -0.0108
vn 0.0597 0.5428 -0.8377
vn 0.6926 -0.2128 -0.6892
vn 0.0472 0.0273 -0.9985
vn -0.6553 -0.3334 -0.6778
vn -0.9815 -0.1859 -0.0468
vn -0.6016 -0.5399 0.5887
vn -0.1424 -0.2581 0.9556
vn -0.3138 0.8348 -0.4523
vn -0.4184 0.6647 0.6190
vn 0.7537 0.2696 0.5993
vn 0.6492 0.5339 -0.5417
vn -0.3134 0.8002 0.5113
vn 0.5380 0.8396 -0.0756
vn -0.0224 0.3800 -0.9247
vn -0.8970 0.3769 -0.2310
vn 0.3505 0.9100 0.2217
vn -0.1908 0.7977 -0.5721
vn -0.8911 0.4295 0.1465
vn -0.1835 0.6292 0.7553
vn 0.0000 -1.0000 -0.0000
vn 0.6415 0.2114 0.7374
vn 0.5177 0.1057 -0.8490
vn -0.7952 0.2524 0.5514
vn 0.9028 0.4288 -0.0321
vn 0.8003 0.1889 0.5691
vn -0.2586 -0.0423 0.9650
vn 0.4026 -0.0940 0.9105
vn 0.6978 -0.0538 -0.7143
vn -0.7569 0.6055 -0.2461
vn 0.1233 0.0465 -0.9913
vn -0.1743 0.2378 -0.9556
vn 0.8705 -0.4916 -0.0225
vn 0.8684 -0.4882 -0.0869
vn -0.1594 0.1657 0.9732
vn 0.1934 -0.0687 0.9787
vn -0.7372 0.5747 0.3554
vn -0.1670 0.0566 -0.9843
vn -0.9219 -0.1706 -0.3479
vn -0.6989 -0.0797 0.7108
vn -0.7806 -0.0163 0.6248
vn -0.7803 -0.0160 0.6252
vn -0.7810 -0.0117 0.6244
vn -0.2901 0.0572 0.9553
vn 0.5886 -0.0150 0.8083
vn -0.8822 -0.4029 -0.2438
vn -0.8823 -0.4029 -0.2433
vn -0.8822 -0.4021 -0.2452
vn 0.9274 -0.0214 0.3734
vn -0.1903 0.1015 0.9765
vn 0.9288 -0.1289 -0.3474
vn 0.9595 -0.2063 0.1920
vn 0.4650 -0.2091 0.8602
vn 0.4647 -0.2094 0.8604
vn 0.4651 -0.2091 0.8602
vn 0.7217 -0.0456 0.6907
vn 0.6659 0.5613 0.4914
vn 0.6757 0.5231 0.5193
vn 0.0871 0.3456 0.9343
vn -0.1970 0.8257 0.5286
vn -0.4429 0.8893 -0.1139
vn -0.2638 0.2968 -0.9178
vn -0.2669 0.3007 -0.9156
vn -0.2621 0.2946 -0.9190
vn 0.0288 -0.1417 -0.9895
vn 0.5555 -0.7734 -0.3053
vn 0.6378 -0.7034 0.3138
vn 0.4655 -0.2088 0.8601
vn -0.8769 0.3602 0.3184
vn 0.2375 0.9191 0.3143
vn 0.7532 0.6090 -0.2487
vn 0.8503 0.2784 -0.4467
vn 0.6529 -0.1916 -0.7328
vn -0.0655 -0.7067 -0.7044
vn -0.6867 -0.6889 -0.2321
vn -0.9230 -0.3672 0.1148
vn 0.6172 0.5056 0.6029
vn 0.3805 0.4412 0.8127
vn -0.6496 -0.0107 0.7602
vn -0.8829 -0.1864 0.4310
vn -0.7402 -0.3217 -0.5905
vn -0.3732 -0.2229 -0.9006
vn 0.5795 0.2222 -0.7841
vn 0.7822 0.3653 -0.5047
vn 0.5995 0.5375 -0.5930
vn 0.6052 0.5345 -0.5900
vn 0.6067 0.5336 -0.5892
vn 0.8504 0.5190 0.0862
vn 0.5957 -0.0279 -0.8028
vn 0.7057 0.3467 -0.6179
vn 0.6948 0.6509 -0.3060
vn 0.0232 0.1950 -0.9805
vn -0.7557 -0.0208 0.6545
vn 0.7024 0.1149 -0.7024
vn -0.9402 0.2617 -0.2182
vn -0.5507 -0.0936 -0.8294
vn -0.6949 0.2313 -0.6810
vn -0.5101 0.2486 -0.8234
vn -0.7813 -0.0070 0.6241
vn 0.3059 0.4321 -0.8484
vn 0.6616 0.1146 -0.7411
vn 0.8405 0.0436 -0.5401
vn -0.0760 0.4511 0.8892
vn 0.6166 0.4714 0.6305
vn 0.7468 0.0626 -0.6621
vn -0.1076 -0.5375 -0.8363
vn -0.6165 0.5057 -0.6034
vn -0.6311 0.4420 0.6375
vn 0.6955 -0.1632 0.6998
vn 0.9486 -0.3147 0.0323
vn -0.8799 0.4743 -0.0305
vn 0.0386 0.5325 -0.8455
vn 0.6439 0.0426 -0.7639
vn 0.1314 -0.2255 -0.9654
vn -0.7638 -0.0674 -0.6419
vn -0.8919 -0.4344 -0.1261
vn -0.6122 -0.2642 0.7452
vn -0.0334 -0.5339 0.8449
vn -0.4306 0.7277 -0.5339
vn -0.2989 0.7968 0.5251
vn 0.7012 0.5097 0.4985
vn 0.6895 0.3408 -0.6391
vn -0.2885 0.6627 0.6911
vn 0.3794 0.9176 -0.1187
vn -0.0895 0.5553 -0.8269
vn -0.9726 0.1281 -0.1941
vn 0.4936 0.8465 0.1996
vn -0.2183 0.8866 -0.4077
vn -0.7930 0.5814 0.1820
vn -0.1548 0.5086 0.8470
vn 0.6901 0.2020 0.6950
vn 0.4968 -0.0007 -0.8679
vn -0.7022 0.3491 0.6205
vn 0.9264 0.1864 0.3270
vn 0.9098 0.1974 0.3652
vn 0.6343 0.2971 0.7137
vn -0.0676 -0.1026 0.9924
vn -0.5638 -0.1888 0.8040
vn -0.1906 0.1580 0.9689
vn 0.6228 -0.0933 -0.7768
vn -0.7454 0.5919 -0.3067
vn 0.3235 -0.1156 -0.9391
vn -0.2689 0.2873 -0.9193
vn 0.8090 -0.4914 0.3224
vn 0.8211 -0.4700 -0.3239
vn -0.2115 0.1956 0.9576
vn 0.3759 -0.2141 0.9016
vn -0.7292 0.5644 0.3868
vn 0.0093 0.0087 -0.9999
vn 0.0687 -0.0217 -0.9974
vn 0.4485 -0.0050 -0.8938
vn 0.2507 -0.0809 -0.9647
vn -0.9888 -0.0873 -0.1214
vn -0.9929 -0.0957 -0.0706
vn -0.7300 -0.0753 0.6792
vn -0.3967 0.0746 0.9149
vn -0.9044 0.2016 0.3760
vn -0.4400 0.0792 0.8945
vn 0.7111 -0.0108 0.7031
vn -0.5917 -0.7407 -0.3182
vn -0.8812 -0.3973 -0.2560
vn 0.7963 -0.0143 0.6047
vn -0.2934 0.1011 0.9506
vn 0.9734 -0.2266 0.0338
vn 0.4632 -0.1766 0.8685
vn -0.0078 0.5321 0.8467
vn -0.0609 0.5554 0.8294
vn -0.4315 0.8622 -0.2653
vn -0.2685 0.3028 -0.9144
vn 0.0590 -0.2026 -0.9775
vn 0.5086 -0.6971 -0.5053
vn 0.6434 -0.7144 0.2750
vn 0.4310 -0.1634 0.8874
vn 0.0821 0.8804 0.4671
vn 0.5971 0.7851 0.1643
vn 0.8021 0.5385 -0.2583
vn 0.7187 -0.0508 -0.6934
vn -0.0206 -0.6976 -0.7162
vn -0.6093 -0.7126 -0.3477
vn -0.9200 -0.2192 0.3250
vn 0.7944 0.4979 0.3479
vn 0.4083 0.4531 0.7924
vn -0.5455 0.0365 0.8373
vn -0.9132 -0.2330 0.3344
vn -0.8203 -0.3471 -0.4546
vn -0.2887 -0.2031 -0.9356
vn 0.4415 0.1199 -0.8892
vn 0.8862 0.4331 -0.1645
vn 0.5988 0.5379 -0.5933
vn 0.8616 0.5049 0.0526
vn 0.4973 -0.2017 -0.8438
vn 0.7771 0.1163 -0.6185
vn 0.6629 0.0232 -0.7483
vn 0.4585 0.1031 -0.8827
vn 0.2616 -0.2174 -0.9404
vn 0.7282 0.1257 -0.6737
g Tree11_Plane.014_Tree11_Plane.014_Trunk.012
usemtl Trunk.012
s 1
f 1/1/1 2/2/1 3/3/1
f 4/4/2 5/5/2 6/6/2
f 7/7/3 8/8/3 2/9/3
f 9/10/4 10/11/4 11/12/4
f 12/13/5 13/14/5 14/15/5
f 15/16/6 16/17/6 17/18/6
f 18/19/7 17/20/8 19/21/9
f 20/22/10 12/23/10 21/24/10
f 3/25/11 22/26/11 23/27/11
f 22/28/12 24/29/12 23/30/12
f 25/31/13 26/32/13 5/33/13
f 6/34/14 27/35/14 4/36/14
f 28/37/15 16/38/15 29/39/15
f 19/40/16 30/41/16 31/42/16
f 32/43/17 31/44/17 33/45/17
f 4/46/18 34/47/18 28/48/18
f 35/49/19 6/34/19 36/50/19
f 32/51/20 37/52/20 35/53/20
f 35/53/21 38/54/21 39/55/21
f 39/56/22 40/57/22 27/58/22
f 27/59/23 41/60/23 34/61/23
f 34/62/24 42/63/24 16/38/24
f 17/64/25 42/65/25 30/66/25
f 43/67/26 44/68/26 45/69/26
f 43/70/27 46/71/27 47/72/27
f 46/73/28 48/74/28 47/75/28
f 44/76/29 48/77/29 49/78/29
f 50/79/30 51/80/30 52/81/30
f 50/82/31 53/83/31 54/84/31
f 53/85/32 55/86/32 54/87/32
f 51/88/33 55/89/33 56/90/33
f 20/91/34 57/92/34 58/93/34
f 20/94/35 59/95/35 60/96/35
f 59/97/36 61/98/36 60/99/36
f 57/100/37 61/101/37 62/102/37
f 30/103/38 63/104/38 31/105/38
f 41/106/38 63/104/38 42/107/38
f 63/104/38 38/108/38 37/109/38
f 63/104/38 33/110/38 31/105/38
f 64/111/39 65/112/39 66/113/39
f 67/114/40 68/115/40 69/116/40
f 70/117/41 22/118/41 2/119/41
f 66/120/42 71/121/42 13/122/42
f 66/120/43 72/123/43 71/121/43
f 11/124/44 29/125/44 73/126/44
f 72/127/45 73/128/45 74/129/45
f 69/116/46 75/130/46 36/131/46
f 45/132/47 76/133/47 43/134/47
f 49/135/48 77/136/48 44/137/48
f 77/136/49 45/138/49 44/137/49
f 78/139/50 79/140/50 48/141/50
f 79/142/51 49/143/51 48/144/51
f 80/145/52 81/146/52 46/71/52
f 81/147/53 78/148/53 46/149/53
f 76/133/54 80/150/54 43/134/54
f 14/15/55 67/114/55 6/151/55
f 10/152/56 82/153/56 25/154/56
f 11/12/57 28/37/57 29/39/57
f 3/25/58 82/155/59 9/10/60
f 62/156/61 9/10/61 83/157/61
f 62/158/62 64/159/62 57/160/62
f 25/161/63 82/162/64 23/163/65
f 58/164/66 64/165/66 12/166/66
f 83/167/67 11/124/67 65/168/67
f 84/169/68 75/170/68 68/171/68
f 18/172/69 84/173/69 85/174/69
f 74/129/70 73/128/71 85/175/72
f 18/176/73 73/128/73 15/177/73
f 71/178/74 72/179/74 86/180/74
f 72/179/75 74/181/75 86/180/75
f 86/182/76 81/146/76 87/183/76
f 71/184/77 87/183/77 76/185/77
f 13/186/78 76/187/78 88/188/78
f 89/189/79 88/190/80 77/136/81
f 89/189/82 90/191/82 68/115/82
f 68/171/83 79/142/83 84/169/83
f 84/192/84 91/193/84 85/194/84
f 85/175/72 81/147/85 74/129/70
f 3/3/86 2/2/86 22/195/86
f 8/196/87 70/197/87 2/198/87
f 92/199/88 93/200/88 8/201/88
f 94/202/89 92/199/89 95/203/89
f 95/204/90 96/205/90 94/206/90
f 97/207/91 96/208/91 26/32/91
f 97/209/92 98/210/92 99/211/92
f 100/212/93 24/29/93 22/28/93
f 93/213/94 101/214/94 50/215/94
f 52/216/95 93/213/95 50/215/95
f 100/217/96 52/218/96 51/219/96
f 56/90/97 100/212/97 51/88/97
f 99/220/98 56/221/98 55/222/98
f 102/223/99 99/220/99 55/222/99
f 94/206/100 102/224/100 53/85/100
f 101/225/101 94/202/101 53/226/101
f 75/227/102 35/228/103 36/229/104
f 19/230/105 75/227/105 18/231/105
f 103/232/106 26/233/106 95/204/106
f 104/234/107 95/203/107 92/199/107
f 8/201/108 104/234/108 92/199/108
f 7/235/109 104/236/109 8/237/109
f 23/27/110 82/155/110 3/25/110
f 104/236/111 7/235/111 21/238/111
f 1/1/112 59/97/112 2/2/112
f 4/4/113 25/239/113 5/5/113
f 2/9/114 59/240/114 7/7/114
f 59/240/115 105/241/115 7/7/115
f 9/10/60 82/155/59 10/11/116
f 89/189/117 67/114/117 13/14/117
f 67/114/118 14/15/118 13/14/118
f 14/15/119 21/238/119 12/13/119
f 15/16/120 29/242/120 16/17/120
f 18/19/7 15/243/121 17/20/8
f 20/22/122 58/244/122 12/23/122
f 25/31/123 97/207/123 26/32/123
f 6/34/124 39/245/124 27/35/124
f 28/37/125 34/62/125 16/38/125
f 19/40/126 17/246/126 30/41/126
f 32/43/127 19/247/127 31/44/127
f 4/46/128 27/248/128 34/47/128
f 35/49/129 39/245/129 6/34/129
f 32/51/130 33/249/130 37/52/130
f 35/53/131 37/52/131 38/54/131
f 39/56/132 38/250/132 40/57/132
f 27/59/133 40/251/133 41/60/133
f 34/62/134 41/252/134 42/63/134
f 17/64/135 16/253/135 42/65/135
f 43/67/136 47/254/136 44/68/136
f 43/70/137 80/145/137 46/71/137
f 46/73/138 78/255/138 48/74/138
f 44/76/139 47/256/139 48/77/139
f 50/79/140 54/257/140 51/80/140
f 50/82/141 101/258/141 53/83/141
f 53/85/142 102/224/142 55/86/142
f 51/88/143 54/259/143 55/89/143
f 20/91/144 60/260/144 57/92/144
f 20/94/145 105/261/145 59/95/145
f 59/97/146 1/1/146 61/98/146
f 57/100/147 60/262/147 61/101/147
f 30/103/38 42/107/38 63/104/38
f 41/106/38 40/263/38 63/104/38
f 63/104/38 40/263/38 38/108/38
f 63/104/38 37/109/38 33/110/38
f 64/111/148 83/264/148 65/112/148
f 67/114/149 89/189/149 68/115/149
f 70/117/150 100/217/150 22/118/150
f 13/122/151 12/166/151 66/120/151
f 12/166/152 64/165/152 66/120/152
f 66/120/153 65/265/153 72/123/153
f 15/266/154 73/126/154 29/125/154
f 73/126/155 72/267/155 11/124/155
f 72/267/156 65/168/156 11/124/156
f 69/116/157 68/115/157 75/130/157
f 45/132/158 88/268/158 76/133/158
f 49/135/159 90/191/159 77/136/159
f 77/136/160 88/190/160 45/138/160
f 78/139/161 91/193/161 79/140/161
f 79/142/162 90/269/162 49/143/162
f 80/145/163 87/183/163 81/146/163
f 81/147/164 91/270/164 78/148/164
f 76/133/165 87/271/165 80/150/165
f 67/114/166 69/116/166 6/151/166
f 69/116/167 36/131/167 6/151/167
f 6/151/168 5/272/168 14/15/168
f 5/272/169 21/238/169 14/15/169
f 25/154/170 4/273/170 10/152/170
f 4/273/171 28/274/171 10/152/171
f 11/12/172 10/11/172 28/37/172
f 9/10/173 61/275/173 3/25/173
f 61/275/174 1/276/174 3/25/174
f 62/156/175 61/275/175 9/10/175
f 62/158/176 83/277/176 64/159/176
f 23/163/177 24/278/177 97/209/177
f 97/209/178 25/161/63 23/163/65
f 58/164/179 57/279/179 64/165/179
f 83/167/180 9/280/180 11/124/180
f 18/172/181 75/281/181 84/173/181
f 18/176/182 85/175/182 73/128/182
f 86/182/183 74/282/183 81/146/183
f 71/184/184 86/182/184 87/183/184
f 13/186/185 71/283/185 76/187/185
f 89/189/79 13/14/186 88/190/80
f 89/189/187 77/136/187 90/191/187
f 68/171/188 90/269/188 79/142/188
f 84/192/189 79/140/189 91/193/189
f 85/175/190 91/270/190 81/147/190
f 8/196/191 93/284/191 70/197/191
f 92/199/192 106/285/192 93/200/192
f 94/202/193 106/285/193 92/199/193
f 95/204/194 26/233/194 96/205/194
f 97/207/195 99/286/195 96/208/195
f 97/209/196 24/278/196 98/210/196
f 100/212/197 98/287/197 24/29/197
f 93/213/198 106/288/198 101/214/198
f 52/216/199 70/289/199 93/213/199
f 100/217/200 70/117/200 52/218/200
f 56/90/201 98/287/201 100/212/201
f 99/220/202 98/290/202 56/221/202
f 102/223/203 96/291/203 99/220/203
f 94/206/204 96/205/204 102/224/204
f 101/225/205 106/285/205 94/202/205
f 75/227/102 32/292/206 35/228/103
f 19/230/207 32/292/207 75/227/207
f 103/232/208 5/272/208 26/233/208
f 104/234/209 103/293/209 95/203/209
f 7/235/210 105/294/210 20/295/210
f 20/295/211 21/238/211 7/235/211
f 21/238/212 5/272/212 103/232/212
f 104/236/213 21/238/213 103/232/213
