# Blender v2.93.3 OBJ File: 'TreesPack.blend'
# www.blender.org
mtllib tree11rot.mtl
o Tree11Rot_Plane.015
v -2.760186 -0.963054 -12.595831
v -3.400015 -0.963054 -12.879901
v -3.117548 -0.963054 -13.516121
v -2.477719 -0.963054 -13.232051
v -2.655586 3.098976 -13.111342
v -2.728287 3.156621 -13.169831
v -2.670442 3.137121 -13.260951
v -2.597741 3.079477 -13.202463
v -3.349011 3.174659 -13.973744
v -3.305278 3.128554 -14.024179
v -3.247091 3.122286 -13.967992
v -3.290824 3.168392 -13.917559
v -2.253849 0.628495 -13.200580
v -2.281608 0.580485 -13.069599
v -2.373125 0.689504 -13.064393
v -2.342072 0.743041 -13.194882
v -1.983359 1.135896 -13.137131
v -1.968797 1.124008 -13.062300
v -2.034544 1.161880 -13.045620
v -2.049258 1.173876 -13.120296
v -3.571086 1.896424 -12.973154
v -3.524496 1.777856 -13.327507
v -3.161118 1.725962 -13.145321
v -3.337721 1.715024 -12.929728
v -3.395465 2.322218 -12.995313
v -3.313252 2.320827 -13.341511
v -3.685622 2.253779 -13.338371
v -3.545360 2.055198 -13.454166
v -2.728380 0.441312 -13.066602
v -2.925571 0.466203 -12.663176
v -3.388554 0.819924 -12.907847
v -3.047452 0.779711 -12.728821
v -2.649862 0.151052 -13.104276
v -2.617971 0.171959 -12.849565
v -3.324883 3.173508 -14.010971
v -2.687997 0.296659 -13.126229
v -3.266558 3.143538 -14.007679
v -3.258287 3.166335 -13.946665
v -2.835085 0.005639 -13.235322
v -2.676630 0.273651 -12.793133
v -2.886529 0.127119 -12.715441
v -3.632471 2.304393 -13.187118
v -3.316612 3.196305 -13.949957
v -2.687052 3.150372 -13.129949
v -2.602342 0.132282 -12.970268
v -2.695929 3.173165 -13.219345
v -2.617923 3.127069 -13.238844
v -3.429946 1.800213 -12.884573
v -3.680794 2.080793 -13.113660
v -3.313688 1.774248 -13.261436
v -3.361977 2.220528 -13.432938
v -2.609046 3.104276 -13.149447
v -3.233539 1.690096 -13.066334
v -3.575969 1.838782 -13.204495
v -2.756394 -0.963054 -13.466972
v -3.655630 2.153376 -13.422872
v -2.916336 0.760015 -12.832680
v -3.349020 -0.963054 -13.240696
v -3.225556 0.778454 -12.762444
v -3.119396 -0.963054 -12.649359
v -3.014758 0.804418 -13.186038
v -2.526769 -0.963054 -12.875635
v -2.000619 1.175559 -13.131478
v -2.030803 1.189367 -13.079713
v -1.984830 1.161220 -13.047088
v -1.956686 1.145868 -13.098917
v -2.763652 -0.855470 -12.567293
v -3.421370 -0.855470 -12.859305
v -3.131005 -0.837363 -13.513314
v -2.473287 -0.837363 -13.221302
v -2.867393 -0.444344 -12.773202
v -3.193545 -0.444012 -12.919037
v -3.047805 -0.410904 -13.240923
v -2.726192 -0.418719 -13.097012
v -3.387426 2.382936 -13.157919
v -3.613475 2.657388 -13.788754
v -3.532330 2.552826 -13.895130
v -3.398370 2.615220 -13.793797
v -3.460800 2.696640 -13.688732
v -2.741021 0.477616 -12.928233
v -2.253202 0.580020 -13.136294
v -2.331603 0.628726 -13.041495
v -2.378350 0.729910 -13.130010
v -2.286975 0.705903 -13.220192
v -2.736144 -0.433540 -12.909632
v -2.859671 -0.411548 -13.227944
v -3.181872 -0.427039 -13.106200
v -3.058357 -0.449779 -12.786760
v -2.490107 -0.848631 -12.837566
v -2.745424 -0.836370 -13.495068
v -3.404359 -0.848631 -13.243473
v -3.149042 -0.860891 -12.585972
v -1.961199 1.206891 -13.085344
v -3.278014 3.214934 -13.995502
v -2.630398 3.182101 -13.180722
v -2.935855 -0.963054 -13.062760
v -2.876118 0.218540 -13.233846
v -3.604003 2.591677 -13.860308
v -3.439997 2.554953 -13.865517
v -3.406403 2.656247 -13.735868
v -3.551752 2.697711 -13.718381
v -2.707177 0.379271 -12.859785
v -3.434420 2.138409 -13.465817
v -3.324970 2.101141 -13.349670
v -3.494354 1.903045 -13.361859
v -2.926679 2.684094 -13.314320
vt 0.972213 0.089292
vt 0.959922 0.006394
vt 0.972213 0.000000
vt 0.467495 0.640588
vt 0.441138 0.461144
vt 0.482781 0.638182
vt 0.289290 0.923333
vt 0.288296 0.879839
vt 0.305038 0.878869
vt 0.884085 0.384431
vt 0.893429 0.458893
vt 0.876043 0.464608
vt 0.779736 0.226081
vt 0.759640 0.117275
vt 0.780592 0.150573
vt 0.501133 0.042996
vt 0.481504 0.008355
vt 0.512938 0.008836
vt 0.884642 0.925006
vt 0.906659 0.964058
vt 0.874953 0.964058
vt 0.305411 0.633386
vt 0.331903 0.520699
vt 0.309228 0.636927
vt 0.455065 0.271392
vt 0.432688 0.270134
vt 0.430000 0.251589
vt 0.452067 0.831283
vt 0.438703 0.834505
vt 0.445467 0.814807
vt 0.430000 0.458886
vt 0.445285 0.436326
vt 0.402656 0.898689
vt 0.380828 0.939825
vt 0.386981 0.899373
vt 0.815339 0.939397
vt 0.788795 0.972666
vt 0.800190 0.939381
vt 0.333712 0.952110
vt 0.324729 0.982149
vt 0.323465 0.952156
vt 0.235886 0.958008
vt 0.225937 0.984999
vt 0.226353 0.959181
vt 0.953820 0.126936
vt 0.932406 0.166040
vt 0.938384 0.127991
vt 0.158164 0.974201
vt 0.131339 0.935139
vt 0.146355 0.934932
vt 0.763263 0.009783
vt 0.795008 0.003284
vt 0.794935 0.012409
vt 0.185620 0.980509
vt 0.175246 0.949961
vt 0.185620 0.948876
vt 0.669255 0.951482
vt 0.679139 0.979958
vt 0.669023 0.982722
vt 0.343932 0.983817
vt 0.334538 0.953816
vt 0.343576 0.952110
vt 0.019947 0.987499
vt 0.010001 0.957494
vt 0.019947 0.955702
vt 0.482815 0.000015
vt 0.512723 0.000000
vt 0.166829 0.280884
vt 0.170685 0.283190
vt 0.167338 0.284712
vt 0.090956 0.603495
vt 0.094560 0.607100
vt 0.089818 0.609317
vt 0.553519 0.759199
vt 0.558433 0.759854
vt 0.555307 0.763887
vt 0.568554 0.730766
vt 0.572142 0.727122
vt 0.572142 0.731010
vt 0.164878 0.993827
vt 0.160138 0.995567
vt 0.161612 0.992302
vt 0.171069 0.261418
vt 0.166829 0.259234
vt 0.171069 0.255518
vt 0.169397 0.715987
vt 0.165793 0.711964
vt 0.170771 0.710162
vt 0.452067 0.926825
vt 0.446947 0.928578
vt 0.448673 0.925652
vt 0.197063 0.795278
vt 0.202537 0.800442
vt 0.197750 0.800442
vt 0.676370 0.835493
vt 0.670466 0.830636
vt 0.676507 0.828822
vt 0.202899 0.802442
vt 0.197460 0.807103
vt 0.197063 0.800443
vt 0.140340 0.690976
vt 0.145913 0.685856
vt 0.145305 0.690976
vt 0.702187 0.354871
vt 0.722482 0.319069
vt 0.732246 0.354871
vt 0.686371 0.299330
vt 0.686596 0.329288
vt 0.741598 0.283603
vt 0.757569 0.309077
vt 0.757415 0.339144
vt 0.036899 0.762995
vt 0.055109 0.842294
vt 0.041717 0.845995
vt 0.779652 0.101135
vt 0.759377 0.092336
vt 0.778972 0.083633
vt 0.465970 0.892052
vt 0.457291 0.838365
vt 0.478113 0.842446
vt 0.136281 0.852920
vt 0.146890 0.826438
vt 0.158164 0.824394
vt 0.055109 0.870504
vt 0.028939 0.870537
vt 0.472537 0.143786
vt 0.485484 0.042537
vt 0.500629 0.090054
vt 0.512938 0.668138
vt 0.529512 0.645962
vt 0.538376 0.665562
vt 0.768031 0.050185
vt 0.783324 0.052040
vt 0.961790 0.354488
vt 0.954979 0.309429
vt 0.965319 0.355992
vt 0.964059 0.466897
vt 0.964125 0.422953
vt 0.967071 0.468790
vt 0.970117 0.466500
vt 0.556428 0.757340
vt 0.567229 0.708311
vt 0.901275 0.765315
vt 0.898572 0.816204
vt 0.894953 0.817704
vt 0.996076 0.657904
vt 0.999467 0.607887
vt 0.999467 0.660006
vt 0.556351 0.707561
vt 0.967751 0.353691
vt 0.457291 0.741271
vt 0.457395 0.691579
vt 0.482338 0.644054
vt 0.603080 0.539741
vt 0.586509 0.451169
vt 0.605949 0.450912
vt 0.896310 0.559050
vt 0.880902 0.561463
vt 0.441209 0.236217
vt 0.454090 0.228189
vt 0.512938 0.335722
vt 0.460764 0.221235
vt 0.920312 0.002441
vt 0.906389 0.127336
vt 0.916004 0.000000
vt 0.593124 0.432103
vt 0.899321 0.121312
vt 0.911470 0.000896
vt 0.487485 0.143874
vt 0.894837 0.719399
vt 0.902895 0.674141
vt 0.906659 0.719715
vt 0.888782 0.672040
vt 0.886501 0.721458
vt 0.547881 0.661247
vt 0.567229 0.614000
vt 0.553556 0.606402
vt 0.031978 0.880173
vt 0.035177 0.890200
vt 0.977915 0.376041
vt 0.985588 0.415378
vt 0.980521 0.416894
vt 0.970117 0.381637
vt 0.975915 0.421274
vt 0.956036 0.272376
vt 0.949907 0.312824
vt 0.572858 0.987998
vt 0.584200 0.945244
vt 0.584200 0.993085
vt 0.970117 0.377696
vt 0.958019 0.419562
vt 0.960362 0.370015
vt 0.557276 0.660574
vt 0.561912 0.706382
vt 0.479665 0.828771
vt 0.977530 0.136307
vt 0.991679 0.094769
vt 0.991679 0.145929
vt 0.738041 0.902992
vt 0.736610 0.859708
vt 0.749437 0.900897
vt 0.723682 0.859819
vt 0.729642 0.907058
vt 0.355699 0.546835
vt 0.388332 0.583928
vt 0.380815 0.586617
vt 0.436639 0.427716
vt 0.468984 0.386980
vt 0.616700 0.420559
vt 0.637044 0.374363
vt 0.644056 0.378211
vt 0.438016 0.881073
vt 0.567579 0.643550
vt 0.572858 0.686147
vt 0.569567 0.688622
vt 0.164878 0.948926
vt 0.458175 0.893275
vt 0.479665 0.931993
vt 0.477281 0.935283
vt 1.000000 0.788347
vt 0.996650 0.738130
vt 1.000000 0.736847
vt 0.482781 0.343953
vt 0.462698 0.383667
vt 0.480466 0.340541
vt 0.389223 0.634974
vt 0.386169 0.636927
vt 0.749437 0.816812
vt 0.747192 0.813536
vt 0.754938 0.955073
vt 0.733844 0.914709
vt 0.749217 0.915312
vt 0.350937 0.525658
vt 0.361208 0.536764
vt 0.342627 0.544920
vt 0.350935 0.554071
vt 0.739547 0.914709
vt 0.994968 0.363140
vt 0.994968 0.421274
vt 0.985587 0.405727
vt 0.325045 0.597898
vt 0.968536 0.092658
vt 0.305038 0.965610
vt 0.300105 0.964972
vt 0.896310 0.374363
vt 0.761738 0.104210
vt 0.795008 0.231803
vt 0.900253 0.925732
vt 0.315672 0.519645
vt 0.412500 0.939825
vt 0.819520 0.972666
vt 0.333712 0.983814
vt 0.235886 0.986964
vt 0.964080 0.166040
vt 0.127578 0.974201
vt 0.765128 0.000000
vt 0.175288 0.980017
vt 0.679139 0.950359
vt 0.333712 0.983817
vt 0.010862 0.987404
vt 0.170685 0.277607
vt 0.094560 0.603104
vt 0.567360 0.725264
vt 0.163694 0.999304
vt 0.167483 0.263024
vt 0.165794 0.715987
vt 0.451100 0.931742
vt 0.203041 0.793386
vt 0.671611 0.835493
vt 0.202146 0.807103
vt 0.139509 0.683885
vt 0.711920 0.283495
vt 0.050595 0.760426
vt 0.158164 0.934932
vt 0.150360 0.934474
vt 0.498399 0.117949
vt 0.969353 0.423101
vt 0.906659 0.769178
vt 0.993615 0.610134
vt 0.959833 0.306435
vt 0.457955 0.673702
vt 0.467242 0.640588
vt 0.482338 0.828771
vt 0.464762 0.824689
vt 0.644056 0.636703
vt 0.629328 0.641638
vt 0.510089 0.339980
vt 0.506087 0.340541
vt 0.920312 0.130597
vt 0.607796 0.413924
vt 0.985588 0.370015
vt 0.967751 0.272557
vt 0.579307 0.946703
vt 0.985124 0.093588
vt 0.732026 0.859340
vt 0.430000 0.880190
vt 0.572858 0.641638
vt 0.158213 0.948877
vt 0.992762 0.784866
vt 0.723682 0.955073
vt 0.349164 0.515085
vt 0.313940 0.636314
vn -0.7441 0.6371 0.2011
vn -0.6869 -0.1775 -0.7048
vn -0.5898 0.6622 -0.4623
vn -0.6715 -0.0459 0.7396
vn 0.5061 0.1181 -0.8544
vn -0.0497 0.4372 0.8980
vn 0.6131 0.4732 0.6325
vn 0.6100 -0.3015 -0.7328
vn -0.6024 0.3636 0.7106
vn -0.9315 0.2783 0.2342
vn -0.9350 -0.2031 -0.2907
vn -0.6354 0.5209 -0.5700
vn -0.6141 0.4516 0.6473
vn 0.6978 -0.4173 0.5821
vn 0.9896 -0.0465 0.1362
vn -0.8755 0.4832 -0.0108
vn 0.0597 0.5428 -0.8377
vn 0.6926 -0.2128 -0.6892
vn 0.0472 0.0273 -0.9985
vn -0.6553 -0.3334 -0.6778
vn -0.9815 -0.1859 -0.0468
vn -0.6016 -0.5399 0.5887
vn -0.1424 -0.2581 0.9556
vn -0.1046 0.9440 -0.3128
vn -0.1096 0.6710 0.7333
vn 0.8725 -0.0437 0.4867
vn 0.7038 0.3908 -0.5933
vn 0.4029 0.8271 0.3919
vn 0.9613 0.1885 -0.2007
vn 0.1523 0.1899 -0.9699
vn -0.3850 0.8804 -0.2768
vn 0.9178 0.3969 0.0101
vn 0.2722 0.7272 -0.6301
vn -0.2810 0.9229 0.2632
vn 0.4923 0.5466 0.6773
vn 0.0000 -1.0000 0.0000
vn 0.6084 0.3822 0.6956
vn 0.5177 0.1057 -0.8490
vn -0.3167 0.7968 0.5147
vn 0.8376 0.5423 -0.0657
vn 0.7780 0.2954 0.5544
vn -0.2324 -0.0509 0.9713
vn 0.4026 -0.0940 0.9105
vn 0.6978 -0.0538 -0.7143
vn -0.7971 0.5879 0.1381
vn 0.0437 0.1596 -0.9862
vn -0.2231 0.3106 -0.9240
vn 0.8852 -0.4649 0.0153
vn 0.8000 -0.3890 -0.4568
vn 0.0294 -0.0086 0.9995
vn 0.3524 -0.2200 0.9096
vn -0.7648 0.5400 0.3514
vn -0.1367 0.0484 -0.9894
vn -0.9847 -0.1632 0.0615
vn -0.6976 -0.1090 0.7082
vn -0.4097 0.2151 0.8865
vn 0.3861 -0.0696 0.9198
vn 0.6316 -0.2355 0.7387
vn -0.8919 -0.4340 0.1270
vn 0.8705 -0.3477 0.3483
vn -0.1844 0.1514 0.9711
vn 0.9288 -0.1289 -0.3474
vn 0.9595 -0.2063 0.1921
vn 0.4647 -0.2094 0.8604
vn 0.7217 -0.0456 0.6907
vn 0.6641 0.5674 0.4868
vn 0.6757 0.5232 0.5193
vn 0.1430 0.4330 0.8900
vn -0.2736 0.8091 0.5201
vn -0.6443 0.7350 -0.2115
vn -0.4416 0.2338 -0.8662
vn -0.0460 -0.1607 -0.9859
vn 0.6799 -0.6535 -0.3326
vn 0.8096 -0.5184 0.2752
vn 0.6280 -0.0680 0.7752
vn -0.3235 0.8916 0.3169
vn 0.8503 0.4961 0.1757
vn 0.9297 -0.1416 -0.3401
vn 0.7420 -0.4589 -0.4886
vn 0.2406 -0.6703 -0.7020
vn -0.6225 -0.5099 -0.5938
vn -0.9922 -0.0074 -0.1245
vn -0.8919 0.4176 0.1737
vn 0.8544 -0.0338 0.5185
vn 0.6665 0.1111 0.7372
vn -0.3784 0.5307 0.7584
vn -0.7014 0.5444 0.4600
vn -0.8089 0.2503 -0.5320
vn -0.5166 0.0262 -0.8559
vn 0.4763 -0.3366 -0.8123
vn 0.7496 -0.3557 -0.5581
vn 0.6067 0.5336 -0.5892
vn 0.8504 0.5190 0.0862
vn 0.2415 -0.4429 -0.8635
vn 0.6483 -0.2900 -0.7040
vn 0.8959 -0.0313 -0.4431
vn 0.0373 0.0351 -0.9987
vn -0.5547 0.2698 0.7871
vn 0.4076 -0.2248 -0.8850
vn -0.7345 0.6216 -0.2723
vn -0.9361 -0.1760 -0.3045
vn -0.5146 0.3910 -0.7631
vn -0.5762 0.4092 -0.7075
vn -0.5520 -0.0431 0.8327
vn 0.3045 0.4344 -0.8477
vn 0.5844 0.2024 -0.7858
vn 0.6266 0.1334 -0.7678
vn -0.0760 0.4511 0.8892
vn 0.6166 0.4714 0.6305
vn 0.5329 -0.2559 -0.8066
vn -0.6377 -0.5417 -0.5477
vn -0.6165 0.5057 -0.6034
vn -0.6311 0.4420 0.6375
vn 0.6955 -0.1632 0.6998
vn 0.9486 -0.3147 0.0323
vn -0.8799 0.4743 -0.0305
vn 0.0386 0.5325 -0.8455
vn 0.6439 0.0426 -0.7639
vn 0.1314 -0.2255 -0.9654
vn -0.7638 -0.0674 -0.6419
vn -0.8919 -0.4344 -0.1261
vn -0.6122 -0.2642 0.7452
vn -0.0334 -0.5339 0.8449
vn -0.2545 0.8871 -0.3850
vn 0.0289 0.7766 0.6293
vn 0.8839 0.2101 0.4178
vn 0.6693 0.2081 -0.7132
vn 0.3426 0.7315 0.5895
vn 0.9011 0.3518 -0.2536
vn 0.2401 0.3686 -0.8981
vn -0.6099 0.7659 -0.2035
vn 0.9671 0.2526 -0.0316
vn 0.3551 0.8032 -0.4783
vn -0.1011 0.9616 0.2552
vn 0.4524 0.4366 0.7776
vn 0.7739 0.3531 0.5258
vn 0.4968 -0.0007 -0.8679
vn -0.1758 0.8038 0.5684
vn 0.9024 0.3215 0.2870
vn 0.5893 0.3801 0.7129
vn -0.0675 -0.1026 0.9924
vn -0.4788 -0.1873 0.8577
vn -0.1848 0.1321 0.9739
vn 0.6228 -0.0933 -0.7768
vn -0.7606 0.5706 -0.3098
vn 0.3652 -0.0787 -0.9276
vn -0.2177 0.3082 -0.9261
vn 0.8104 -0.4711 0.3484
vn 0.8519 -0.4140 -0.3208
vn -0.2813 0.1640 0.9455
vn 0.3262 -0.2001 0.9239
vn -0.7573 0.5275 0.3851
vn 0.0093 0.0087 -0.9999
vn 0.0687 -0.0217 -0.9974
vn 0.3266 0.0338 -0.9445
vn 0.2993 0.0181 -0.9540
vn -0.9847 -0.1695 0.0398
vn -0.9856 -0.1514 -0.0752
vn -0.6771 -0.1109 0.7274
vn -0.0613 0.2110 0.9756
vn -0.5316 0.5583 0.6370
vn -0.1482 0.2552 0.9555
vn 0.7371 -0.2828 0.6138
vn -0.9745 -0.1873 -0.1233
vn -0.9264 -0.3428 -0.1558
vn 0.7669 -0.3055 0.5644
vn 0.5795 0.2100 0.7874
vn 0.9734 -0.2266 0.0338
vn 0.4632 -0.1766 0.8685
vn 0.0455 0.5425 0.8388
vn -0.0211 0.5662 0.8240
vn -0.6426 0.7247 -0.2488
vn -0.3705 0.0809 -0.9253
vn 0.0164 -0.2390 -0.9709
vn 0.6295 -0.6173 -0.4718
vn 0.7981 -0.4950 0.3434
vn 0.5160 0.0361 0.8558
vn 0.7310 0.5952 0.3336
vn 0.9903 0.1316 0.0441
vn 0.9129 -0.2264 -0.3396
vn 0.3904 -0.6163 -0.6839
vn -0.5859 -0.5368 -0.6070
vn -0.9675 -0.0904 -0.2360
vn -0.7621 0.5381 0.3601
vn 0.9450 -0.1905 0.2660
vn 0.6921 0.0975 0.7152
vn -0.2638 0.4963 0.8271
vn -0.7661 0.5245 0.3714
vn -0.8680 0.3031 -0.3933
vn -0.4474 -0.0240 -0.8940
vn 0.2961 -0.3186 -0.9004
vn 0.9073 -0.3505 -0.2322
vn 0.5988 0.5379 -0.5933
vn 0.8616 0.5049 0.0526
vn 0.4704 -0.3371 -0.8155
vn 0.5741 -0.4487 -0.6849
vn 0.3697 -0.1003 -0.9237
vn 0.6134 -0.3033 -0.7292
vn 0.2788 -0.3160 -0.9069
vn 0.3394 -0.2342 -0.9110
g Tree11Rot_Plane.015_Trunk
usemtl Trunk
s off
f 6/1/1 75/2/1 25/3/1
f 87/4/2 22/5/2 73/6/2
f 106/7/3 26/8/3 75/9/3
f 48/10/4 31/11/4 59/12/4
f 23/13/5 29/14/5 61/15/5
f 71/16/6 92/17/6 67/18/6
f 85/19/7 67/20/7 89/21/7
f 8/22/8 50/23/8 47/24/8
f 25/25/9 42/26/9 49/27/9
f 42/28/10 27/29/10 49/30/10
f 54/31/11 28/32/11 22/5/11
f 73/33/12 91/34/12 87/35/12
f 72/36/13 92/37/13 88/38/13
f 89/39/14 1/40/14 62/41/14
f 70/42/15 62/43/15 4/44/15
f 87/45/16 68/46/16 72/47/16
f 90/48/17 73/49/17 86/50/17
f 70/51/18 55/52/18 90/53/18
f 90/54/19 3/55/19 69/56/19
f 69/57/20 58/58/20 91/59/20
f 91/60/21 2/61/21 68/62/21
f 68/63/22 60/64/22 92/65/22
f 67/18/23 60/66/23 1/67/23
f 64/68/24 63/69/24 20/70/24
f 64/71/25 65/72/25 93/73/25
f 65/74/26 66/75/26 93/76/26
f 63/77/27 66/78/27 17/79/27
f 38/80/28 43/81/28 12/82/28
f 38/83/29 37/84/29 94/85/29
f 37/86/30 35/87/30 94/88/30
f 43/89/31 35/90/31 9/91/31
f 47/92/32 52/93/32 8/94/32
f 47/95/33 46/96/33 95/97/33
f 46/98/34 44/99/34 95/100/34
f 52/101/35 44/102/35 5/103/35
f 1/104/36 96/105/36 62/106/36
f 2/107/36 96/105/36 60/108/36
f 96/105/36 3/109/36 55/110/36
f 96/105/36 4/111/36 62/106/36
f 53/112/37 32/113/37 57/114/37
f 97/115/38 33/116/38 39/117/38
f 79/118/39 42/119/39 75/120/39
f 57/121/40 80/122/40 29/123/40
f 57/114/41 30/124/41 80/125/41
f 59/126/42 88/127/42 41/128/42
f 30/129/43 41/130/43 40/131/43
f 39/117/44 74/132/44 86/133/44
f 20/134/45 83/135/45 64/136/45
f 17/137/46 84/138/46 63/139/46
f 84/138/47 20/140/47 63/139/47
f 18/141/48 81/142/48 66/75/48
f 81/143/49 17/144/49 66/145/49
f 19/146/50 82/147/50 65/148/50
f 82/149/51 18/141/51 65/74/51
f 83/135/52 19/150/52 64/136/52
f 61/151/53 97/152/53 73/153/53
f 31/154/54 21/155/54 54/156/54
f 59/12/55 72/157/55 88/158/55
f 25/25/56 21/159/56 48/160/56
f 5/161/57 48/160/57 24/162/57
f 5/163/58 53/164/58 52/165/58
f 54/156/59 21/155/59 49/166/59
f 52/165/60 23/167/60 8/168/60
f 24/162/61 59/126/61 32/169/61
f 45/170/62 74/171/62 33/172/62
f 85/173/63 45/170/63 34/174/63
f 40/131/64 41/130/64 34/175/64
f 85/176/65 41/130/65 71/177/65
f 80/125/66 30/124/66 102/178/66
f 30/124/67 40/179/67 102/178/67
f 102/180/68 82/181/68 15/182/68
f 80/183/69 15/182/69 83/184/69
f 29/185/70 83/135/70 16/186/70
f 29/187/71 84/188/71 36/189/71
f 36/190/72 13/191/72 33/192/72
f 33/172/73 81/143/73 45/170/73
f 45/193/74 14/194/74 34/175/74
f 34/175/75 82/149/75 40/131/75
f 25/195/76 75/120/76 42/119/76
f 26/196/77 79/197/77 75/198/77
f 51/199/78 100/200/78 26/201/78
f 99/202/79 51/199/79 103/203/79
f 103/204/80 77/205/80 99/206/80
f 56/207/81 77/208/81 28/32/81
f 56/209/82 76/210/82 98/211/82
f 101/212/83 27/29/83 42/28/83
f 100/213/84 11/214/84 38/215/84
f 12/82/85 100/216/85 38/80/85
f 101/217/86 12/218/86 43/219/86
f 9/91/87 101/212/87 43/89/87
f 98/220/88 9/221/88 35/222/88
f 10/223/89 98/224/89 35/225/89
f 99/206/90 10/226/90 37/227/90
f 11/228/91 99/202/91 37/229/91
f 74/132/92 90/53/92 86/133/92
f 89/230/93 74/231/93 85/232/93
f 105/233/94 28/234/94 103/204/94
f 104/235/95 103/204/95 51/236/95
f 26/201/96 104/237/96 51/199/96
f 106/238/97 104/239/97 26/240/97
f 49/27/98 21/159/98 25/25/98
f 104/235/99 106/241/99 50/23/99
f 6/1/100 46/242/100 75/2/100
f 87/4/101 54/31/101 22/5/101
f 75/9/102 46/243/102 106/7/102
f 46/243/103 7/244/103 106/7/103
f 48/10/104 21/245/104 31/11/104
f 36/246/105 97/115/105 29/14/105
f 97/115/106 61/15/106 29/14/106
f 61/15/107 50/247/107 23/13/107
f 71/16/108 88/127/108 92/17/108
f 85/19/109 71/248/109 67/20/109
f 8/22/110 23/249/110 50/23/110
f 54/31/111 56/207/111 28/32/111
f 73/33/112 69/250/112 91/34/112
f 72/36/113 68/251/113 92/37/113
f 89/39/114 67/252/114 1/40/114
f 70/42/115 89/253/115 62/43/115
f 87/45/116 91/254/116 68/46/116
f 90/48/117 69/255/117 73/49/117
f 70/51/118 4/256/118 55/52/118
f 90/54/119 55/257/119 3/55/119
f 69/57/120 3/258/120 58/58/120
f 91/60/121 58/259/121 2/61/121
f 68/63/122 2/260/122 60/64/122
f 67/18/123 92/17/123 60/66/123
f 64/68/124 93/261/124 63/69/124
f 64/71/125 19/262/125 65/72/125
f 65/74/126 18/141/126 66/75/126
f 63/77/127 93/263/127 66/78/127
f 38/80/128 94/264/128 43/81/128
f 38/83/129 11/265/129 37/84/129
f 37/86/130 10/266/130 35/87/130
f 43/89/131 94/267/131 35/90/131
f 47/92/132 95/268/132 52/93/132
f 47/95/133 7/269/133 46/96/133
f 46/98/134 6/270/134 44/99/134
f 52/101/135 95/271/135 44/102/135
f 1/104/36 60/108/36 96/105/36
f 2/107/36 58/272/36 96/105/36
f 96/105/36 58/272/36 3/109/36
f 96/105/36 55/110/36 4/111/36
f 53/112/136 24/273/136 32/113/136
f 97/115/137 36/246/137 33/116/137
f 79/118/138 101/217/138 42/119/138
f 29/123/139 23/274/139 57/121/139
f 23/274/140 53/275/140 57/121/140
f 57/114/37 32/113/37 30/124/37
f 71/16/141 41/128/141 88/127/141
f 41/128/142 30/276/142 59/126/142
f 30/276/143 32/169/143 59/126/143
f 39/117/144 33/116/144 74/132/144
f 20/134/145 16/186/145 83/135/145
f 17/137/146 13/191/146 84/138/146
f 84/138/147 16/277/147 20/140/147
f 18/141/148 14/194/148 81/142/148
f 81/143/149 13/278/149 17/144/149
f 19/146/150 15/279/150 82/147/150
f 82/149/151 14/194/151 18/141/151
f 83/135/152 15/280/152 19/150/152
f 97/152/153 39/281/153 73/153/153
f 39/281/154 86/282/154 73/153/154
f 73/153/155 22/283/155 61/151/155
f 22/283/156 50/284/156 61/151/156
f 54/156/157 87/285/157 31/154/157
f 87/285/158 72/286/158 31/154/158
f 59/12/159 31/11/159 72/157/159
f 48/160/160 44/287/160 25/25/160
f 44/287/161 6/288/161 25/25/161
f 5/161/162 44/287/162 48/160/162
f 5/163/163 24/289/163 53/164/163
f 49/166/164 27/290/164 56/209/164
f 56/209/165 54/156/165 49/166/165
f 52/165/166 53/164/166 23/167/166
f 24/162/167 48/160/167 59/126/167
f 85/173/168 74/171/168 45/170/168
f 85/176/169 34/175/169 41/130/169
f 102/180/170 40/291/170 82/181/170
f 80/183/171 102/180/171 15/182/171
f 29/185/172 80/292/172 83/135/172
f 29/187/173 16/293/173 84/188/173
f 36/190/174 84/138/174 13/191/174
f 33/172/175 13/278/175 81/143/175
f 45/193/176 81/142/176 14/194/176
f 34/175/177 14/194/177 82/149/177
f 26/196/178 100/294/178 79/197/178
f 51/199/179 78/295/179 100/200/179
f 99/202/180 78/295/180 51/199/180
f 103/204/181 28/234/181 77/205/181
f 56/207/182 98/224/182 77/208/182
f 56/209/183 27/290/183 76/210/183
f 101/212/184 76/296/184 27/29/184
f 100/213/185 78/297/185 11/214/185
f 12/82/186 79/298/186 100/216/186
f 101/217/187 79/118/187 12/218/187
f 9/91/188 76/296/188 101/212/188
f 98/220/189 76/299/189 9/221/189
f 10/223/190 77/208/190 98/224/190
f 99/206/191 77/205/191 10/226/191
f 11/228/192 78/295/192 99/202/192
f 74/132/193 70/51/193 90/53/193
f 89/230/194 70/300/194 74/231/194
f 105/233/195 22/301/195 28/234/195
f 104/235/196 105/233/196 103/204/196
f 106/241/197 7/302/197 47/24/197
f 47/24/198 50/23/198 106/241/198
f 50/23/199 22/301/199 105/233/199
f 104/235/200 50/23/200 105/233/200
